<?xml version="1.0" standalone="no"?>
<!DOCTYPE svg PUBLIC "-//W3C//DTD SVG 1.1//EN" "http://www.w3.org/Graphics/SVG/1.1/DTD/svg11.dtd" >
<svg xmlns="http://www.w3.org/2000/svg" xmlns:xlink="http://www.w3.org/1999/xlink" version="1.1">
<metadata>
Created by FontForge 20170910 at Mon Jul 12 19:16:02 2010
 By Jimmy Wärting
Copyright (c) 2010 by DA. All rights reserved.
</metadata>
<defs>
<font id="BAZChronicleDIS-XMedium" horiz-adv-x="499" >
  <font-face 
    font-family="BAZ Chronicle DIS"
    font-weight="500"
    font-stretch="normal"
    units-per-em="1000"
    panose-1="2 0 6 3 6 0 0 2 0 4"
    ascent="750"
    descent="-250"
    x-height="458"
    cap-height="697"
    bbox="-64 -243 1155 974"
    underline-thickness="50"
    underline-position="-100"
    stemh="20"
    stemv="100"
    unicode-range="U+0020-FB02"
  />
<missing-glyph 
d="M1 0v697h498v-697h-498zM81 49h338l-169 254zM50 95l170 253l-170 254v-507zM449 95v507l-170 -254zM250 393l169 254h-338z" />
    <glyph glyph-name="fi" unicode="fi" horiz-adv-x="560" 
d="M27 0v5c58 1 74 6 74 39v406h-87v8h87v39c0 167 94 223 202 223c120 0 159 -56 159 -98c0 -31 -20 -53 -48 -53c-26 0 -51 14 -51 51c0 17 11 36 26 44c-10 23 -40 48 -87 48c-61 0 -111 -26 -111 -165v-89h153l127 3v-417c0 -33 14 -38 74 -39v-5h-231v5
c48 1 67 6 67 39v406h-190v-406c0 -33 17 -38 73 -39v-5h-237z" />
    <glyph glyph-name="fl" unicode="fl" horiz-adv-x="562" 
d="M381 450h-190v-406c0 -33 17 -38 73 -39v-5h-237v5c58 1 74 6 74 39v406h-87v8h87v44c0 78 20 132 56 168c37 37 87 53 139 53c37 0 66 -6 88 -16l87 13v-676c0 -32 15 -38 74 -39v-5h-230v5c48 1 66 7 66 39v406zM381 592c-24 3 -45 16 -45 47c0 19 12 33 25 42
c-10 17 -30 34 -66 34c-80 0 -104 -58 -104 -127v-130h190v134z" />
    <glyph glyph-name=".notdef" 
d="M1 0v697h498v-697h-498zM81 49h338l-169 254zM50 95l170 253l-170 254v-507zM449 95v507l-170 -254zM250 393l169 254h-338z" />
    <glyph glyph-name="space" unicode=" " horiz-adv-x="190" 
 />
    <glyph glyph-name="exclam" unicode="!" horiz-adv-x="275" 
d="M132 189c-3 207 -50 373 -50 460c0 51 20 76 55 76c36 0 57 -25 57 -76c0 -87 -48 -253 -51 -460h-11zM138 -13c-32 0 -58 26 -58 56c0 32 26 58 58 58s58 -26 58 -57s-26 -57 -58 -57z" />
    <glyph glyph-name="quotedbl" unicode="&#x22;" horiz-adv-x="416" 
d="M250 436l-11 4l21 105c15 76 23 111 30 126c9 20 26 30 45 30c29 0 47 -22 47 -47c0 -17 2 -25 -71 -130zM78 436l-11 4l22 105c16 76 23 111 30 126c10 20 24 30 43 30c30 0 48 -22 48 -47c0 -17 1 -26 -71 -130z" />
    <glyph glyph-name="numbersign" unicode="#" horiz-adv-x="703" 
d="M248 460h-166v9h168l46 234h13l-47 -234h233l47 234h12l-46 -234h161v-9h-163l-50 -252h170v-9h-172l-48 -241h-12l48 241h-233l-48 -241h-13l48 241h-158v9h160zM494 460h-233l-51 -252h233z" />
    <glyph glyph-name="dollar" unicode="$" horiz-adv-x="565" 
d="M285 19h-2c-122 3 -210 53 -210 122c0 26 19 58 57 58c32 0 53 -25 53 -53c0 -22 -13 -43 -40 -55c18 -29 53 -58 142 -64v260l-14 4c-93 30 -187 66 -187 174c0 106 98 171 201 176v72h8v-72c111 -3 188 -60 188 -114c0 -28 -18 -54 -49 -54c-35 0 -52 24 -52 50
c0 21 14 41 33 50c-17 35 -62 58 -120 61v-249c93 -35 209 -55 209 -180c0 -88 -64 -181 -208 -186v-83h-9v83zM285 633c-70 -4 -118 -51 -118 -125c0 -62 43 -94 118 -120v245zM294 27c91 4 131 61 131 126c0 71 -43 98 -131 130v-256z" />
    <glyph glyph-name="percent" unicode="%" horiz-adv-x="811" 
d="M584 0c92 0 167 135 167 239c0 63 -24 105 -80 105c-91 0 -153 -150 -153 -253c0 -59 27 -91 66 -91zM576 -16c-88 0 -136 62 -136 145c0 115 100 241 214 241c66 0 110 -48 110 -129c0 -84 -66 -257 -188 -257zM355 578c-35 11 -56 36 -85 63
c-95 -17 -145 -162 -145 -254c0 -59 27 -90 67 -90c92 0 167 133 167 239c0 14 -2 31 -4 42zM359 604c25 -12 53 -18 88 -18c57 0 122 26 187 96h13l-474 -710h-32l465 668l-2 1c-40 -36 -114 -71 -179 -71c-20 0 -39 2 -57 6c1 -9 4 -28 4 -39c0 -83 -66 -257 -188 -257
c-88 0 -136 62 -136 145c0 116 101 242 214 242c45 0 80 -22 97 -63z" />
    <glyph glyph-name="ampersand" unicode="&#x26;" horiz-adv-x="757" 
d="M334 381c67 49 82 94 82 162c0 69 -29 115 -88 115c-57 0 -93 -49 -93 -109c0 -54 43 -111 99 -168zM251 343c-66 -38 -99 -89 -99 -172s56 -145 141 -145c62 0 109 32 151 86c-41 72 -121 167 -193 231zM500 188c48 101 101 164 154 164c43 0 65 -25 65 -61
c0 -30 -20 -53 -51 -53c-29 0 -49 20 -49 47c0 10 4 19 10 27l-3 3c-39 -15 -82 -56 -121 -132c56 -100 100 -144 148 -144c21 0 40 5 71 29l3 -3c-51 -53 -91 -82 -134 -82c-65 0 -100 46 -144 123c-48 -69 -115 -123 -202 -123c-128 0 -192 81 -192 172
c0 97 81 155 193 193c-50 49 -88 92 -88 157c0 91 69 161 176 161c96 0 158 -55 158 -127c0 -66 -51 -109 -157 -163c62 -54 129 -127 163 -188z" />
    <glyph glyph-name="quotesingle" unicode="'" horiz-adv-x="244" 
d="M78 436l-11 4l22 105c16 76 23 111 30 126c10 20 24 30 43 30c30 0 48 -22 48 -47c0 -17 1 -26 -71 -130z" />
    <glyph glyph-name="parenleft" unicode="(" horiz-adv-x="383" 
d="M405 -166c-152 63 -329 215 -329 465s177 402 329 465l2 -3c-141 -79 -236 -202 -236 -462c0 -259 95 -383 236 -462z" />
    <glyph glyph-name="parenright" unicode=")" horiz-adv-x="383" 
d="M-22 -166l-2 3c141 79 236 203 236 462c0 260 -95 383 -236 462l2 3c152 -63 329 -215 329 -465s-177 -402 -329 -465z" />
    <glyph glyph-name="asterisk" unicode="*" horiz-adv-x="423" 
d="M265 389c-4 -1 -7 -2 -10 -2c-43 0 -41 98 -44 158l-6 2c-30 -37 -83 -106 -112 -106c-13 0 -29 15 -29 31c0 32 87 62 137 80v7c-48 17 -136 45 -136 81c0 18 16 30 29 30c26 0 82 -68 111 -107l6 2c3 57 -1 157 45 157c20 0 30 -14 30 -31c0 -6 -1 -12 -3 -19
c-6 -20 -56 -93 -67 -109l5 -4c18 4 100 28 123 28c25 0 40 -11 40 -31c0 -23 -15 -32 -40 -32c-23 0 -105 24 -123 28l-5 -5c11 -16 60 -88 67 -110c2 -6 3 -12 3 -18c0 -14 -7 -25 -21 -30z" />
    <glyph glyph-name="plus" unicode="+" horiz-adv-x="556" 
d="M268 100v216h-214v19h214v212h22v-212h212v-19h-212v-216h-22z" />
    <glyph glyph-name="comma" unicode="," horiz-adv-x="220" 
d="M24 -141l-3 6c68 35 111 71 118 133l-4 2c-8 -6 -19 -9 -28 -9c-30 0 -53 22 -53 53c0 33 23 59 57 59c43 0 60 -30 60 -76c0 -71 -47 -127 -147 -168z" />
    <glyph glyph-name="hyphen" unicode="-" horiz-adv-x="366" 
d="M55 240v38h256v-38h-256z" />
    <glyph glyph-name="period" unicode="." horiz-adv-x="220" 
d="M110 -13c-32 0 -58 26 -58 56c0 32 26 58 58 58s58 -26 58 -57s-26 -57 -58 -57z" />
    <glyph glyph-name="slash" unicode="/" horiz-adv-x="454" 
d="M9 -215l212 481l208 480h26l-421 -961h-25z" />
    <glyph glyph-name="zero" unicode="0" horiz-adv-x="605" 
d="M301 -16c-149 0 -260 146 -260 338c0 193 117 345 262 345c150 0 261 -148 261 -341c0 -191 -117 -342 -263 -342zM305 -8c102 0 148 85 148 332c0 248 -52 335 -154 335s-147 -87 -147 -335c0 -246 50 -332 153 -332z" />
    <glyph glyph-name="one" unicode="1" horiz-adv-x="414" 
d="M34 0v5c101 1 131 14 131 64v497c0 62 -16 76 -131 79v4l227 19v-599c0 -50 29 -63 131 -64v-5h-358z" />
    <glyph glyph-name="two" unicode="2" horiz-adv-x="546" 
d="M50 0v53l164 137c137 114 169 173 169 300c0 128 -50 169 -127 169c-73 0 -120 -39 -135 -72c32 -15 45 -33 45 -61c0 -31 -19 -61 -54 -61c-37 0 -60 28 -60 62c0 77 103 140 214 140c144 0 221 -80 221 -177c0 -90 -66 -150 -232 -282l-156 -124v-4h268
c81 0 101 17 127 112l3 -1v-191h-447z" />
    <glyph glyph-name="three" unicode="3" horiz-adv-x="549" 
d="M257 -16c-120 0 -204 58 -204 123c0 35 21 64 57 64s53 -29 53 -57c0 -27 -24 -51 -42 -61c15 -25 54 -61 136 -61c102 0 144 49 144 175c0 121 -57 163 -183 163h-28v9h15c135 0 179 43 179 167c0 110 -44 153 -129 153c-67 0 -108 -33 -129 -63c33 -1 55 -29 55 -57
c0 -29 -17 -59 -53 -59c-34 0 -57 28 -57 60c0 67 78 127 196 127c148 0 221 -68 221 -158c0 -71 -60 -142 -207 -173v-3c141 -7 224 -63 224 -160c0 -108 -87 -189 -248 -189z" />
    <glyph glyph-name="four" unicode="4" horiz-adv-x="571" 
d="M316 269v311h-3l-240 -311h243zM412 269h144v-57h-144v-144c0 -48 27 -62 97 -63v-5h-296v5c69 1 103 14 103 63v144h-292v6l349 454h39v-403z" />
    <glyph glyph-name="five" unicode="5" horiz-adv-x="543" 
d="M259 -16c-110 0 -200 46 -200 117c0 35 23 64 59 64c35 0 53 -27 53 -54c0 -30 -24 -53 -43 -63c7 -26 63 -57 122 -57c102 0 145 67 145 208c0 135 -52 187 -141 187c-59 0 -101 -13 -146 -44l-6 3l11 316h368l-12 -85h-350l-9 -222c46 30 106 48 158 48
c164 0 233 -88 233 -200c0 -111 -94 -218 -242 -218z" />
    <glyph glyph-name="six" unicode="6" horiz-adv-x="566" 
d="M293 -16c-143 0 -246 115 -246 273c0 234 159 383 431 419v-5c-214 -47 -320 -166 -330 -384l3 -1c39 116 104 144 176 144c117 0 202 -81 202 -201c0 -136 -92 -245 -236 -245zM295 -9c92 0 129 86 129 224c0 133 -39 206 -117 206c-76 0 -156 -71 -156 -223
c0 -131 64 -207 144 -207z" />
    <glyph glyph-name="seven" unicode="7" horiz-adv-x="509" 
d="M101 -10v5l350 587h-284c-67 0 -86 -23 -108 -124h-4v203h441v-3l-296 -668h-99z" />
    <glyph glyph-name="eight" unicode="8" horiz-adv-x="552" 
d="M215 312c-58 -29 -85 -88 -85 -157c0 -99 55 -165 144 -165c82 0 148 42 148 146c0 83 -75 134 -207 176zM332 361c59 33 75 83 75 146c0 89 -49 152 -128 152c-72 0 -127 -45 -127 -139c0 -77 70 -122 180 -159zM207 316c-85 36 -142 92 -142 171c0 104 101 180 214 180
c116 0 214 -64 214 -153c0 -74 -61 -118 -154 -156c114 -44 174 -100 174 -188c0 -108 -119 -188 -230 -188c-145 0 -238 70 -238 169c0 71 68 131 162 165z" />
    <glyph glyph-name="nine" unicode="9" horiz-adv-x="566" 
d="M273 666c143 0 246 -115 246 -273c0 -234 -159 -383 -431 -419v5c214 47 320 166 330 384l-3 1c-39 -116 -104 -144 -176 -144c-117 0 -202 81 -202 201c0 136 92 245 236 245zM271 659c-92 0 -129 -86 -129 -224c0 -133 39 -206 117 -206c76 0 156 71 156 223
c0 131 -64 207 -144 207z" />
    <glyph glyph-name="colon" unicode=":" horiz-adv-x="220" 
d="M110 -13c-32 0 -58 26 -58 56c0 32 26 58 58 58s58 -26 58 -57s-26 -57 -58 -57zM110 285c-32 0 -58 26 -58 56c0 32 26 58 58 58s58 -26 58 -57s-26 -57 -58 -57z" />
    <glyph glyph-name="semicolon" unicode=";" horiz-adv-x="220" 
d="M110 285c-32 0 -58 26 -58 56c0 32 26 58 58 58s58 -26 58 -57s-26 -57 -58 -57zM24 -141l-3 6c68 35 111 71 118 133l-4 2c-8 -6 -19 -9 -28 -9c-30 0 -53 22 -53 53c0 33 23 59 57 59c43 0 60 -30 60 -76c0 -71 -47 -127 -147 -168z" />
    <glyph glyph-name="less" unicode="&#x3c;" horiz-adv-x="555" 
d="M472 100l-387 215v19l387 215v-26l-361 -199l361 -197v-27z" />
    <glyph glyph-name="equal" unicode="=" horiz-adv-x="556" 
d="M59 414v19h438v-19h-438zM59 216v19h438v-19h-438z" />
    <glyph glyph-name="greater" unicode="&#x3e;" horiz-adv-x="555" 
d="M84 100v27l361 198l-361 198v26l387 -214v-19z" />
    <glyph glyph-name="question" unicode="?" horiz-adv-x="466" 
d="M190 189v162c132 31 156 87 156 195c0 112 -51 171 -134 171c-58 0 -111 -34 -127 -65c35 -10 50 -33 50 -59c0 -29 -19 -58 -56 -58c-34 0 -58 27 -58 63c0 69 87 127 203 127c141 0 223 -80 223 -175c0 -107 -95 -175 -245 -206v-155h-12zM197 -13c-32 0 -58 26 -58 56
c0 32 26 58 58 58s58 -26 58 -57s-26 -57 -58 -57z" />
    <glyph glyph-name="at" unicode="@" horiz-adv-x="909" 
d="M470 -146c-238 0 -409 161 -409 408c0 243 177 422 426 422c199 0 361 -141 361 -337c0 -190 -115 -285 -224 -285c-87 0 -120 35 -124 87h-3c-35 -48 -75 -78 -126 -78c-72 0 -115 49 -115 134c0 124 110 272 231 272c47 0 70 -24 84 -59h2l17 51l79 9l-47 -138
l-42 -149c-17 -60 -8 -117 57 -117c89 0 203 86 203 273c0 184 -156 329 -353 329c-240 0 -418 -178 -418 -414c0 -233 158 -400 401 -400c110 0 184 37 252 87l6 -4c-71 -53 -145 -91 -258 -91zM403 98c39 0 69 24 96 71l68 233c-10 44 -37 63 -72 63
c-91 0 -158 -173 -158 -262c0 -61 22 -105 66 -105z" />
    <glyph glyph-name="A" unicode="A" horiz-adv-x="683" 
d="M420 273h-244l-63 -154c-12 -29 -18 -50 -18 -66c0 -33 30 -42 109 -48v-5h-230v5c63 9 88 10 129 114l243 599h4l240 -620c30 -78 37 -84 115 -93v-5h-312v5c51 2 101 0 101 43c0 3 -21 78 -74 225zM179 281h238c-22 55 -102 262 -116 299z" />
    <glyph glyph-name="B" unicode="B" horiz-adv-x="673" 
d="M30 0v5c95 3 114 12 114 57v573c0 44 -19 54 -114 57v5h306c197 0 267 -78 267 -166c0 -78 -60 -146 -197 -160v-3c148 -11 226 -71 226 -171c0 -99 -76 -197 -288 -197h-314zM244 372h98c112 0 154 46 154 156c0 106 -34 161 -160 161h-92v-317zM244 8h107
c129 0 173 54 173 187c0 106 -50 169 -178 169h-102v-356z" />
    <glyph glyph-name="C" unicode="C" horiz-adv-x="705" 
d="M384 -17c-196 0 -337 136 -337 357c0 216 158 371 358 371c71 0 132 -28 179 -53l43 61h4v-227h-6c-52 150 -118 211 -231 211c-123 0 -233 -109 -233 -356c0 -233 132 -341 256 -341c117 0 198 83 244 180l8 -4c-43 -98 -128 -199 -285 -199z" />
    <glyph glyph-name="D" unicode="D" horiz-adv-x="758" 
d="M30 0v5c95 3 114 12 114 57v573c0 44 -19 54 -114 57v5h305c247 0 377 -146 377 -337c0 -183 -114 -360 -367 -360h-315zM244 8h72c209 0 281 88 281 346c0 261 -93 335 -275 335h-78v-681z" />
    <glyph glyph-name="E" unicode="E" horiz-adv-x="680" 
d="M30 0v5c95 3 114 12 114 57v573c0 44 -19 54 -114 57v5h564l3 -197l-5 -1c-40 143 -86 190 -143 190h-205v-324h106c78 0 91 25 114 137h5v-282h-5c-23 113 -36 137 -114 137h-106v-349h205c122 0 119 64 173 202l5 -1l-5 -209h-592z" />
    <glyph glyph-name="F" unicode="F" horiz-adv-x="641" 
d="M30 0v5c95 3 114 12 114 57v573c0 44 -19 53 -114 56v6h557l9 -214l-5 -1c-48 149 -85 207 -151 207h-196v-332h101c78 0 88 26 114 134h5v-277h-5c-26 108 -36 135 -114 135h-101v-287c0 -46 19 -55 115 -57v-5h-329z" />
    <glyph glyph-name="G" unicode="G" horiz-adv-x="748" 
d="M410 -17c-188 0 -363 126 -363 365c0 219 173 366 356 366c77 0 138 -25 183 -52l43 58h6v-220h-5c-49 149 -121 206 -235 206c-118 0 -233 -100 -233 -356c0 -255 127 -359 246 -359c61 0 110 15 143 41v215c0 46 -21 59 -115 62v6h295v-6c-69 -4 -82 -9 -82 -61v-199
c-68 -42 -161 -66 -239 -66z" />
    <glyph glyph-name="H" unicode="H" horiz-adv-x="815" 
d="M30 0v5c95 3 114 11 114 56v574c0 45 -19 54 -114 57v5h320v-5c-94 -3 -106 -11 -106 -57v-269h328v269c0 46 -13 54 -106 57v5h320v-5c-95 -3 -114 -12 -114 -57v-574c0 -45 19 -53 114 -56v-5h-320v5c93 3 106 10 106 56v297h-328v-297c0 -46 12 -53 106 -56v-5h-320z
" />
    <glyph glyph-name="I" unicode="I" horiz-adv-x="403" 
d="M35 0v5c98 2 116 12 116 57v573c0 44 -18 54 -116 57v5h333v-5c-98 -3 -117 -13 -117 -57v-573c0 -45 19 -55 117 -57v-5h-333z" />
    <glyph glyph-name="J" unicode="J" horiz-adv-x="550" 
d="M208 -17c-102 0 -167 58 -167 115c0 38 26 66 58 66s56 -24 56 -55s-25 -62 -66 -66c14 -27 68 -53 110 -53c84 0 118 58 118 171v474c0 44 -16 54 -118 57v5h332v-5c-94 -3 -113 -13 -113 -58v-434c0 -133 -63 -217 -210 -217z" />
    <glyph glyph-name="K" unicode="K" horiz-adv-x="739" 
d="M242 295v-234c0 -46 13 -53 100 -56v-5h-314v5c95 3 114 11 114 56v574c0 45 -19 54 -114 57v5h321v-5c-94 -3 -107 -11 -107 -57v-327l281 281c30 30 47 51 47 67c0 21 -29 31 -98 36v5h250v-5c-87 -9 -108 -30 -215 -135l-132 -129l222 -307c70 -97 79 -105 152 -116
v-5h-301v6c52 3 81 6 81 28c0 12 -8 29 -26 54l-193 274z" />
    <glyph glyph-name="L" unicode="L" horiz-adv-x="620" 
d="M28 0v5c95 3 114 22 114 67v563c0 44 -19 54 -114 57v5h324v-5c-98 -3 -110 -11 -110 -57v-627h190c77 0 97 45 155 210l5 -1l-10 -217h-554z" />
    <glyph glyph-name="M" unicode="M" horiz-adv-x="954" 
d="M43 0v5c98 14 121 12 121 109v484c0 57 -29 90 -121 95v4h220l228 -569h4l218 569h211v-5c-94 -3 -114 -13 -114 -57v-573c0 -45 20 -54 114 -57v-5h-319v5c93 3 105 11 105 57v591h-4l-252 -656h-12l-268 656h-2v-539c0 -97 21 -96 124 -109v-5h-253z" />
    <glyph glyph-name="N" unicode="N" horiz-adv-x="780" 
d="M641 -16l-466 633h-3v-508c0 -97 21 -91 125 -104v-5h-255v5c98 14 122 7 122 104v487c0 57 -32 91 -122 96v5h201l392 -535l1 425c0 97 -28 95 -131 105v5h255v-5c-97 -11 -116 -9 -116 -105v-603h-3z" />
    <glyph glyph-name="O" unicode="O" horiz-adv-x="761" 
d="M380 -17c-177 0 -333 142 -333 364c0 220 162 367 334 367c177 0 334 -142 334 -364c0 -221 -162 -367 -335 -367zM384 -9c128 0 216 71 216 357c0 288 -95 358 -223 358s-215 -71 -215 -357c0 -288 94 -358 222 -358z" />
    <glyph glyph-name="P" unicode="P" horiz-adv-x="634" 
d="M30 0v5c95 3 114 12 114 57v579c0 44 -19 48 -114 51v5h290c206 0 282 -82 282 -190c0 -101 -78 -192 -288 -192h-70v-253c0 -47 20 -55 120 -57v-5h-334zM244 323h73c143 0 173 61 173 184c0 110 -32 182 -170 182h-76v-366z" />
    <glyph glyph-name="Q" unicode="Q" horiz-adv-x="761" 
d="M384 -9c128 0 216 65 216 357c0 288 -95 358 -223 358s-215 -71 -215 -357s94 -358 222 -358zM419 -14c99 -32 147 -170 221 -170c20 0 33 15 33 29c0 24 -46 34 -46 71c0 25 17 47 47 47s51 -26 51 -58c0 -58 -64 -109 -143 -109c-134 0 -183 164 -267 164
c-41 0 -89 -27 -143 -83l-5 5c54 60 105 94 158 106c-153 26 -278 160 -278 359c0 221 162 367 334 367c177 0 334 -141 334 -364c0 -204 -139 -345 -296 -364z" />
    <glyph glyph-name="R" unicode="R" horiz-adv-x="698" 
d="M244 353h90c141 0 173 55 173 172c0 110 -45 164 -186 164h-77v-336zM244 345v-283c0 -46 16 -54 109 -57v-5h-323v5c95 3 114 12 114 57v573c0 44 -19 54 -114 57v5h302c195 0 286 -70 286 -170c0 -88 -61 -153 -212 -176v-3c147 -10 181 -71 194 -175l7 -56
c11 -91 33 -108 123 -108v-4c-34 -7 -70 -10 -104 -10c-98 0 -117 40 -127 130l-10 91c-11 101 -41 129 -158 129h-87z" />
    <glyph glyph-name="S" unicode="S" horiz-adv-x="576" 
d="M59 -18l-2 248h5c58 -148 126 -236 240 -236c103 0 155 77 155 148c0 89 -55 125 -183 167c-112 36 -204 71 -204 194c0 128 102 208 230 208c60 0 120 -19 157 -39l33 45h4l2 -221h-5c-58 157 -115 207 -200 207c-75 0 -141 -57 -141 -140c0 -88 60 -119 179 -157
c108 -35 201 -74 201 -198c0 -106 -71 -222 -234 -222c-60 0 -140 23 -182 50l-51 -54h-4z" />
    <glyph glyph-name="T" unicode="T" horiz-adv-x="695" 
d="M174 0v5c97 2 123 12 123 57v627h-109c-73 0 -88 -53 -147 -193l-4 1l6 200h609l6 -200l-5 -1c-48 145 -93 193 -140 193h-116v-627c0 -45 26 -55 123 -57v-5h-346z" />
    <glyph glyph-name="U" unicode="U" horiz-adv-x="778" 
d="M398 -16c-167 0 -266 75 -266 221v430c0 44 -19 54 -114 57v5h320v-5c-93 -3 -106 -12 -106 -57v-413c0 -157 89 -217 208 -217s196 77 196 221v361c0 97 -28 95 -138 105v5h268v-5c-103 -11 -122 -9 -122 -105v-368c0 -140 -74 -235 -246 -235z" />
    <glyph glyph-name="V" unicode="V" horiz-adv-x="700" 
d="M399 115l183 458c12 31 19 54 19 71c0 34 -30 44 -108 48v5h229v-5c-72 -5 -89 -22 -137 -140l-233 -572h-3l-243 616c-31 79 -39 92 -116 96v5h311v-5c-74 -2 -102 -11 -102 -41c0 -10 3 -22 9 -37z" />
    <glyph glyph-name="W" unicode="W" horiz-adv-x="1019" 
d="M209 648c0 -9 2 -20 6 -33l151 -486l146 384l-6 19c-46 135 -49 152 -132 160v5h292v-5c-51 -3 -88 -4 -88 -45c0 -10 2 -23 7 -38l159 -474l143 436c10 31 15 53 15 70c0 42 -31 49 -107 51v5h232v-5c-75 -3 -99 -26 -135 -136l-190 -575h-3l-184 520l-196 -520h-3
l-203 616c-26 80 -40 86 -116 96v4h297v-5c-52 -3 -85 -6 -85 -44z" />
    <glyph glyph-name="X" unicode="X" horiz-adv-x="701" 
d="M382 394l124 173c25 36 39 61 38 80c0 30 -34 41 -104 45v5h252v-5c-86 -8 -98 -25 -179 -136c0 0 -124 -170 -125 -170l195 -298c39 -60 51 -71 133 -83v-5h-317v5c65 3 90 14 90 37c0 12 -6 26 -17 44l-149 236c1 0 -133 -187 -133 -187c-29 -42 -44 -70 -44 -89
c0 -29 34 -37 103 -40v-6h-252v6c82 6 102 22 184 137l136 190l-178 274c-40 61 -49 78 -137 85v5h318v-5c-62 -3 -89 -15 -89 -40c0 -12 6 -28 18 -46z" />
    <glyph glyph-name="Y" unicode="Y" horiz-adv-x="668" 
d="M381 320l143 258c17 31 26 55 26 71c0 31 -30 41 -94 43v5h231v-5c-72 -10 -96 -15 -152 -114l-148 -263v-253c0 -45 23 -54 116 -57v-5h-333v5c99 2 117 12 117 57v233l-180 321c-33 59 -41 69 -113 77v4h307v-5c-69 -4 -96 -12 -96 -35c0 -11 6 -26 16 -44z" />
    <glyph glyph-name="Z" unicode="Z" horiz-adv-x="636" 
d="M38 0l-1 2l439 687h-245c-71 0 -103 -58 -164 -200l-4 1l18 207h515l1 -2l-441 -687h267c76 0 113 46 171 209l5 -1l-15 -216h-546z" />
    <glyph glyph-name="bracketleft" unicode="[" horiz-adv-x="363" 
d="M101 -165v929h285v-8h-204v-913h204v-8h-285z" />
    <glyph glyph-name="backslash" unicode="\" horiz-adv-x="454" 
d="M419 -215l-208 479l-212 482h26l208 -480l212 -481h-26z" />
    <glyph glyph-name="bracketright" unicode="]" horiz-adv-x="363" 
d="M-23 -165v8h204v913h-204v8h285v-929h-285z" />
    <glyph glyph-name="asciicircum" unicode="^" horiz-adv-x="354" 
d="M26 542l148 219h13l142 -219h-19l-133 137l-132 -137h-19z" />
    <glyph glyph-name="underscore" unicode="_" horiz-adv-x="440" 
d="M-2 0v28h444v-28h-444z" />
    <glyph glyph-name="grave" unicode="`" horiz-adv-x="238" 
d="M167 534l-80 77c-48 46 -61 63 -61 82c0 23 18 41 41 41c29 0 34 -24 62 -92l44 -108h-6z" />
    <glyph glyph-name="a" unicode="a" horiz-adv-x="481" 
d="M165 -6c-84 0 -123 52 -123 107c0 41 19 73 61 96c62 34 184 54 212 58v75c0 81 -26 125 -90 125c-50 0 -91 -23 -106 -41c25 -3 43 -29 43 -49c0 -29 -19 -51 -51 -51c-31 0 -49 24 -49 51c0 56 74 98 175 98c105 0 168 -41 168 -138v-268c0 -31 6 -43 25 -43
c12 0 30 6 54 15l2 -3c-32 -19 -58 -31 -90 -31c-52 0 -77 26 -80 83h-1c-38 -45 -89 -84 -150 -84zM215 27c40 0 75 29 100 61v161c-146 -27 -178 -55 -178 -132c0 -62 25 -90 78 -90z" />
    <glyph glyph-name="b" unicode="b" horiz-adv-x="533" 
d="M67 -16l3 89v584c0 34 -9 47 -82 50v5l172 5v-324c42 43 90 71 152 71c114 0 185 -95 185 -224c0 -140 -96 -249 -222 -249c-52 0 -115 14 -149 58l-55 -65h-4zM275 -1c83 0 123 99 123 235c0 111 -48 201 -131 201c-41 0 -75 -20 -107 -54v-297c21 -55 66 -85 115 -85z
" />
    <glyph glyph-name="c" unicode="c" horiz-adv-x="458" 
d="M248 -11c-129 0 -214 98 -214 230c0 143 106 245 235 245c105 0 155 -52 155 -92c0 -29 -18 -54 -50 -54c-31 0 -49 20 -49 47c0 25 14 43 40 51c-15 16 -40 42 -95 42c-77 0 -139 -85 -139 -222c0 -118 54 -216 161 -216c58 0 98 27 141 84l4 -3
c-42 -60 -93 -112 -189 -112z" />
    <glyph glyph-name="d" unicode="d" horiz-adv-x="538" 
d="M229 -10c-119 0 -194 99 -194 230c0 140 96 243 224 243c50 0 80 -12 110 -34v239c0 34 -10 37 -81 40v4l171 5v-673c0 -27 16 -38 74 -39v-5h-164v54c-37 -38 -80 -64 -140 -64zM272 19c41 0 72 18 97 46v332c-23 37 -56 59 -107 59c-80 0 -129 -97 -129 -232
c0 -111 50 -205 139 -205z" />
    <glyph glyph-name="e" unicode="e" horiz-adv-x="477" 
d="M133 267h215c1 12 1 23 1 34c0 91 -30 156 -101 156c-66 0 -107 -74 -115 -190zM132 259v-2c-1 -9 -1 -19 -1 -29c0 -120 56 -218 158 -218c66 0 109 48 150 102l5 -3c-43 -64 -94 -120 -191 -120c-128 0 -219 95 -219 232c0 138 100 243 220 243c123 0 191 -83 191 -187
c0 -6 -1 -12 -1 -18h-312z" />
    <glyph glyph-name="f" unicode="f" horiz-adv-x="316" 
d="M27 0v5c58 1 74 6 74 39v406h-87v8h87v40c0 162 91 222 181 222c72 0 104 -26 104 -62c0 -31 -19 -50 -47 -50c-26 0 -50 16 -50 53c0 12 6 31 24 40c-8 8 -22 13 -37 13c-39 0 -85 -14 -85 -155v-101h131v-8h-131v-406c0 -33 22 -38 96 -39v-5h-260z" />
    <glyph glyph-name="g" unicode="g" horiz-adv-x="467" 
d="M244 -189c86 0 161 50 161 117c0 42 -32 70 -126 70h-116c-55 -16 -74 -45 -74 -85c0 -58 47 -102 155 -102zM235 164c62 0 87 54 87 147c0 82 -30 145 -95 145c-62 0 -88 -53 -88 -145c0 -93 33 -147 96 -147zM327 441c21 41 44 74 87 74c33 0 51 -19 51 -46
c0 -22 -15 -39 -37 -39c-32 0 -43 20 -43 50c-29 -2 -38 -21 -51 -42c45 -25 80 -68 80 -125c0 -97 -93 -155 -183 -155c-23 0 -55 6 -78 13c-39 -17 -55 -36 -55 -55c0 -20 24 -36 99 -36h89c117 0 174 -37 174 -119c0 -81 -83 -157 -238 -157c-121 0 -201 40 -201 99
c0 46 57 85 134 98c-73 16 -100 44 -100 83c0 31 33 66 90 90c-52 22 -98 67 -98 135c0 96 94 154 184 154c30 0 67 -9 96 -22z" />
    <glyph glyph-name="h" unicode="h" horiz-adv-x="543" 
d="M7 0v5c58 1 74 6 74 39v619c0 34 -10 42 -82 45v4l172 5v-368c44 71 104 115 172 115c77 0 122 -48 122 -137v-283c0 -32 15 -38 73 -39v-5h-227v5c49 1 64 7 64 39v260c0 75 -23 121 -85 121c-47 0 -91 -39 -119 -94v-287c0 -32 15 -38 64 -39v-5h-228z" />
    <glyph glyph-name="i" unicode="i" horiz-adv-x="278" 
d="M138 553c-34 0 -58 24 -58 59s24 61 58 61c35 0 58 -24 58 -59s-23 -61 -58 -61zM24 0v5c58 1 75 6 75 39v362c0 31 -13 43 -75 46v4l165 5v-417c0 -33 14 -38 74 -39v-5h-239z" />
    <glyph glyph-name="j" unicode="j" horiz-adv-x="266" 
d="M136 553c-34 0 -58 24 -58 59s24 61 58 61c35 0 58 -24 58 -59s-23 -61 -58 -61zM38 -197c-64 0 -102 26 -102 64c0 28 21 50 48 50c28 0 46 -21 46 -48c0 -26 -16 -40 -33 -44c7 -6 14 -14 45 -14c38 0 55 35 55 97v495c0 31 -14 45 -81 48v5l171 5v-454
c0 -85 -7 -131 -45 -168c-29 -29 -67 -36 -104 -36z" />
    <glyph glyph-name="k" unicode="k" horiz-adv-x="511" 
d="M171 190v-145c0 -33 14 -38 56 -40v-5h-219v5c57 2 73 7 73 40v612c0 34 -9 47 -81 50v5c57 1 114 3 171 5v-513c64 64 199 192 199 220c0 17 -21 27 -70 29v5h195v-5c-57 -7 -79 -13 -145 -81l-75 -77l171 -235c35 -49 43 -50 89 -55v-5h-226v5c38 1 53 6 53 18
c0 9 -8 22 -21 41l-121 174z" />
    <glyph glyph-name="l" unicode="l" horiz-adv-x="275" 
d="M20 0v5c58 1 74 7 74 39v619c0 34 -9 42 -81 45v4l171 5v-673c0 -32 14 -38 73 -39v-5h-237z" />
    <glyph glyph-name="m" unicode="m" horiz-adv-x="828" 
d="M466 45c0 -33 15 -38 69 -40v-5h-221v5c49 2 62 7 62 40v269c0 73 -22 114 -81 114c-46 0 -84 -38 -113 -93v-290c0 -33 11 -38 59 -40v-5h-224v5c58 1 75 7 75 40v356c0 30 -13 47 -75 49v5l163 5v-111c44 71 101 115 168 115c66 0 108 -37 116 -109
c44 67 104 109 168 109c76 0 119 -48 119 -137v-282c0 -33 15 -38 72 -40v-5h-222v5c49 2 60 7 60 40v269c0 73 -22 114 -81 114c-42 0 -85 -35 -114 -85v-298z" />
    <glyph glyph-name="n" unicode="n" horiz-adv-x="553" 
d="M19 0v5c57 1 74 6 74 39v357c0 31 -12 47 -74 50v5l162 5v-112c44 71 105 115 173 115c78 0 122 -48 122 -137v-283c0 -32 15 -38 72 -39v-5h-226v5c49 1 64 7 64 39v269c0 75 -22 116 -85 116c-47 0 -90 -39 -118 -94v-291c0 -32 14 -38 63 -39v-5h-227z" />
    <glyph glyph-name="o" unicode="o" horiz-adv-x="525" 
d="M262 -11c-126 0 -228 95 -228 236s108 239 229 239c125 0 227 -94 227 -235s-107 -240 -228 -240zM268 -5c78 0 122 61 122 232s-52 231 -132 231c-79 0 -124 -60 -124 -231c0 -170 54 -232 134 -232z" />
    <glyph glyph-name="p" unicode="p" horiz-adv-x="539" 
d="M5 -192v5c58 1 74 7 74 39v549c0 31 -12 47 -74 50v5l162 5v-72c43 45 91 75 153 75c113 0 183 -92 183 -223c0 -136 -87 -241 -212 -241c-51 0 -88 14 -122 33v-180c0 -33 21 -39 96 -39v-6h-260zM280 8c83 0 125 91 125 228c0 107 -46 199 -129 199
c-40 0 -75 -20 -107 -56v-292c21 -56 61 -79 111 -79z" />
    <glyph glyph-name="q" unicode="q" horiz-adv-x="534" 
d="M278 -192v5c72 2 94 10 94 37v217c-42 -39 -87 -67 -147 -67c-117 0 -190 96 -190 220c0 135 90 244 219 244c52 0 113 -19 154 -57l51 64h3v-89v-532c0 -28 16 -36 74 -37v-5h-258zM268 28c39 0 71 17 104 49v310c-20 50 -61 70 -109 70c-86 0 -130 -90 -130 -231
c0 -115 50 -198 135 -198z" />
    <glyph glyph-name="r" unicode="r" horiz-adv-x="401" 
d="M19 0v5c57 1 74 6 74 39v357c0 31 -12 47 -74 50v5l162 5v-107c33 65 85 109 130 109s65 -26 65 -58c0 -30 -20 -51 -48 -51s-49 19 -49 48c0 24 11 34 17 42c-37 -5 -82 -45 -113 -101v-299c0 -33 19 -38 87 -39v-5h-251z" />
    <glyph glyph-name="s" unicode="s" horiz-adv-x="411" 
d="M46 -11v164h4c49 -119 78 -157 160 -157c68 0 106 48 106 92c0 49 -29 74 -128 102c-101 28 -145 60 -145 132c0 81 68 142 162 142c51 0 90 -17 114 -36l24 36h4v-146h-4c-48 99 -61 139 -148 139c-51 0 -91 -40 -91 -89c0 -45 41 -68 123 -91c101 -28 146 -64 146 -138
c0 -84 -62 -150 -162 -150c-60 0 -102 18 -129 42l-31 -42h-5z" />
    <glyph glyph-name="t" unicode="t" horiz-adv-x="343" 
d="M209 -11c-73 0 -113 41 -113 129v332h-94v8h94v130l90 35v-165h144v-8h-144v-350c0 -60 20 -85 60 -85c31 0 61 22 89 70l4 -2c-33 -64 -71 -94 -130 -94z" />
    <glyph glyph-name="u" unicode="u" horiz-adv-x="543" 
d="M205 -7c-78 0 -124 48 -124 138v272c0 31 -13 45 -74 49v4l164 5v-315c0 -75 22 -116 85 -116c47 0 85 38 115 93v280c0 31 -12 46 -75 49v4l165 5v-419c0 -27 17 -36 75 -38v-4h-165v108c-43 -71 -99 -115 -166 -115z" />
    <glyph glyph-name="v" unicode="v" horiz-adv-x="482" 
d="M241 -10l-166 388c-27 63 -36 71 -87 75v5h235v-5c-65 -4 -77 -15 -58 -63l118 -291l112 260c26 62 22 92 -60 94v5h165v-5c-50 -2 -65 -27 -91 -87l-165 -376h-3z" />
    <glyph glyph-name="w" unicode="w" horiz-adv-x="728" 
d="M281 94h-7l99 227l-21 61c-19 54 -32 67 -79 71v5h228v-5c-61 -4 -78 -22 -63 -62l107 -292l-6 -4l98 263c31 82 13 91 -61 95v5h172v-5c-53 -4 -75 -25 -98 -86l-143 -377h-3l-126 322l-141 -322h-3l-158 391c-21 52 -36 68 -87 72v5h234v-5c-63 -4 -77 -25 -62 -63z
" />
    <glyph glyph-name="x" unicode="x" horiz-adv-x="504" 
d="M275 264l83 105c42 53 42 79 -42 84v5h186v-5c-59 -9 -83 -23 -140 -94l-81 -101l128 -174c49 -66 55 -73 98 -79v-5h-227v5c56 7 77 13 41 65l-92 134l-84 -106c-48 -61 -46 -90 48 -93v-5h-194v5c51 8 78 23 134 93l90 112l-119 164c-48 67 -58 73 -104 79v5h228v-5
c-67 -7 -69 -16 -36 -65z" />
    <glyph glyph-name="y" unicode="y" horiz-adv-x="483" 
d="M249 -8l-173 386c-24 54 -39 70 -91 75v5h236v-5c-65 -4 -73 -25 -57 -64l126 -297l107 268c30 75 16 88 -64 93v5h169v-5c-52 -4 -68 -28 -92 -88l-161 -397c-54 -132 -96 -167 -146 -167c-40 0 -65 29 -65 60c0 26 17 52 48 52c26 0 47 -23 47 -51
c0 -18 -3 -35 -14 -46c33 4 73 31 123 159z" />
    <glyph glyph-name="z" unicode="z" horiz-adv-x="460" 
d="M28 0l-1 3l308 447h-140c-56 0 -84 -34 -137 -149l-6 1l17 156h367l1 -3l-307 -447h153c59 0 89 33 139 157l6 -1l-15 -164h-385z" />
    <glyph glyph-name="braceleft" unicode="{" horiz-adv-x="407" 
d="M418 -159c-149 2 -238 67 -238 186c0 49 16 115 16 153c0 77 -28 118 -170 126v6c142 9 170 45 170 122c0 38 -16 99 -16 148c0 119 89 177 238 182v-6c-120 -10 -144 -74 -144 -165c0 -30 5 -80 5 -127c0 -91 -34 -139 -190 -155v-4c153 -14 190 -68 190 -159
c0 -47 -5 -102 -5 -132c0 -91 24 -159 144 -169v-6z" />
    <glyph glyph-name="bar" unicode="|" horiz-adv-x="303" 
d="M141 -215v961h22v-961h-22z" />
    <glyph glyph-name="braceright" unicode="}" horiz-adv-x="407" 
d="M-11 -159v6c120 10 144 78 144 169c0 30 -5 85 -5 132c0 91 37 145 190 159v4c-156 16 -190 64 -190 155c0 47 5 97 5 127c0 91 -24 155 -144 165v6c149 -5 238 -63 238 -182c0 -49 -16 -110 -16 -148c0 -77 28 -113 170 -122v-6c-142 -8 -170 -49 -170 -126
c0 -38 16 -104 16 -153c0 -119 -89 -184 -238 -186z" />
    <glyph glyph-name="asciitilde" unicode="~" horiz-adv-x="395" 
d="M58 279h-5c12 82 33 122 86 122c48 0 109 -52 147 -52c21 0 42 16 54 61h5c-13 -82 -35 -121 -86 -121c-48 0 -109 51 -147 51c-21 0 -42 -15 -54 -61z" />
    <glyph glyph-name="uni00A0" unicode="&#xa0;" horiz-adv-x="190" 
 />
    <glyph glyph-name="exclamdown" unicode="&#xa1;" horiz-adv-x="275" 
d="M132 520h11c3 -207 51 -373 51 -460c0 -51 -21 -76 -57 -76c-35 0 -55 25 -55 76c0 87 47 253 50 460zM138 725c32 0 58 -26 58 -57s-26 -57 -58 -57s-58 26 -58 58c0 30 26 56 58 56z" />
    <glyph glyph-name="cent" unicode="&#xa2;" horiz-adv-x="527" 
d="M282 -11c-129 0 -214 98 -214 230c0 135 95 234 215 244v69h8v-68h12c105 0 155 -52 155 -92c0 -29 -18 -54 -50 -54c-31 0 -49 20 -49 47c0 25 14 43 40 51c-15 16 -40 42 -95 42c-5 0 -9 0 -13 -1v-433c11 -3 22 -4 35 -4c58 0 98 27 141 84l4 -3
c-41 -58 -90 -109 -180 -112v-78h-8v78h-1zM165 236c0 -101 39 -187 118 -210v430c-67 -14 -118 -96 -118 -220z" />
    <glyph glyph-name="sterling" unicode="&#xa3;" horiz-adv-x="598" 
d="M285 333c9 -25 18 -55 18 -84c0 -54 -31 -101 -82 -141c60 -12 130 -42 212 -42c70 0 107 35 118 126h7c-2 -125 -54 -209 -146 -209c-57 0 -136 52 -200 108c-22 -64 -60 -108 -104 -108c-34 0 -55 24 -55 53c0 40 41 78 122 78c10 0 20 -1 31 -3c11 20 17 41 17 74
c0 56 -25 105 -46 148h-113v8h109c-17 37 -35 80 -35 125c0 129 99 201 223 201c97 0 162 -52 162 -113c0 -33 -20 -60 -52 -60c-33 0 -58 20 -58 58c0 25 19 46 39 57c-16 24 -51 51 -101 51c-68 0 -121 -48 -121 -145c0 -66 31 -121 52 -174h169l-1 -8h-165z" />
    <glyph glyph-name="currency" unicode="&#xa4;" horiz-adv-x="677" 
d="M401 -17c-171 0 -268 132 -286 284h-83v8h80c-1 12 -1 29 -1 41c0 21 2 46 5 66h-84v8h88c31 150 151 276 314 276c116 0 192 -53 192 -119c0 -31 -23 -64 -56 -64c-34 0 -61 21 -61 61c0 31 20 52 46 62c-12 20 -64 54 -124 54c-111 0 -196 -90 -211 -270h227v-8h-229
c0 -14 -1 -33 -1 -48c0 -19 1 -41 3 -59h227v-8h-225c21 -139 103 -232 218 -232c82 0 152 51 189 121l4 -3c-42 -86 -103 -170 -232 -170z" />
    <glyph glyph-name="yen" unicode="&#xa5;" horiz-adv-x="684" 
d="M520 538l-124 -216h195v-8h-200l-4 -8v-86h204v-8h-204v-143c0 -45 23 -61 118 -64v-5h-333v5c100 3 118 19 118 64v143h-205v8h205v66l-17 28h-188v8h184l-140 238c-32 54 -57 73 -118 85v5h304v-5c-68 -3 -111 -16 -71 -89l135 -245l127 225c40 72 30 101 -66 108v6
h228v-5c-58 -11 -103 -28 -148 -107z" />
    <glyph glyph-name="brokenbar" unicode="&#xa6;" 
d="M1 0v697h498v-697h-498zM81 49h338l-169 254zM50 95l170 253l-170 254v-507zM449 95v507l-170 -254zM250 393l169 254h-338z" />
    <glyph glyph-name="section" unicode="&#xa7;" horiz-adv-x="557" 
d="M275 -125c-108 0 -205 34 -205 106c0 32 18 61 55 61c34 0 54 -25 54 -54c0 -22 -13 -44 -39 -56c17 -28 73 -50 141 -50c84 0 132 55 132 110c0 53 -35 81 -164 123c-103 35 -169 67 -169 148c0 64 51 114 129 137v1c-69 30 -116 68 -116 133c0 96 88 157 195 157
c97 0 179 -42 179 -97c0 -32 -19 -54 -50 -54c-33 0 -51 24 -51 49c0 21 9 41 34 51c-11 20 -53 44 -116 44c-72 0 -127 -45 -127 -110c0 -51 51 -77 166 -119c97 -34 158 -65 158 -147c0 -59 -40 -110 -118 -137v-2c70 -29 108 -65 108 -131c0 -93 -69 -163 -196 -163z
M348 176c54 16 76 49 76 84c0 52 -41 79 -146 116c-16 5 -41 14 -56 20c-55 -16 -80 -47 -80 -90c0 -54 42 -74 160 -114c16 -5 33 -11 46 -16z" />
    <glyph glyph-name="dieresis" unicode="&#xa8;" horiz-adv-x="335" 
d="M256 568c-30 0 -52 22 -52 51s22 53 51 53c30 0 51 -24 51 -53s-21 -51 -50 -51zM81 568c-29 0 -50 22 -50 51s21 53 49 53c31 0 52 -24 52 -53s-21 -51 -51 -51z" />
    <glyph glyph-name="copyright" unicode="&#xa9;" horiz-adv-x="834" 
d="M417 -34c-216 0 -383 165 -383 383c0 215 167 382 383 382s383 -167 383 -382c0 -218 -167 -383 -383 -383zM417 -19c208 0 365 165 365 368s-157 367 -365 367s-365 -164 -365 -367s157 -368 365 -368zM423 149c-112 0 -189 72 -189 196c0 131 90 210 199 210
c40 0 79 -13 102 -29l21 30h5v-143h-4c-38 93 -71 134 -128 134c-66 0 -120 -72 -120 -191c0 -120 61 -185 131 -185c61 0 104 33 130 94l7 -2c-23 -57 -70 -114 -154 -114z" />
    <glyph glyph-name="ordfeminine" unicode="&#xaa;" horiz-adv-x="437" 
d="M152 332c-65 0 -97 41 -97 85c0 32 14 60 45 77c50 29 131 35 163 43v58c0 59 -18 89 -65 89c-28 0 -51 -15 -63 -28c15 -8 23 -22 23 -36c0 -25 -16 -42 -41 -42c-24 0 -40 19 -40 40c0 42 50 73 133 73c82 0 129 -31 129 -106v-190c0 -40 18 -48 59 -30l4 -5
c-25 -17 -47 -26 -72 -26c-41 0 -59 17 -62 59h-4c-30 -34 -66 -61 -112 -61zM192 367c27 0 55 14 71 37v126c-104 -17 -127 -46 -127 -101c0 -38 19 -62 56 -62z" />
    <glyph glyph-name="guillemotleft" unicode="&#xab;" horiz-adv-x="498" 
d="M245 30l-190 172c-14 12 -16 17 -16 22c0 4 2 11 16 23l190 171l3 -2l-132 -191l132 -193zM440 30l-190 172c-14 12 -16 17 -16 22c0 4 2 11 16 23l190 171l3 -2l-132 -191l132 -193z" />
    <glyph glyph-name="logicalnot" unicode="&#xac;" 
d="M1 0v697h498v-697h-498zM81 49h338l-169 254zM50 95l170 253l-170 254v-507zM449 95v507l-170 -254zM250 393l169 254h-338z" />
    <glyph glyph-name="uni00AD" unicode="&#xad;" horiz-adv-x="366" 
d="M55 240v38h256v-38h-256z" />
    <glyph glyph-name="registered" unicode="&#xae;" horiz-adv-x="385" 
d="M191 423c-87 0 -153 66 -153 155c0 90 66 153 153 153c90 0 155 -63 155 -153c0 -89 -65 -155 -155 -155zM191 434c85 0 141 62 141 144s-56 142 -141 142s-139 -60 -139 -142s54 -144 139 -144zM173 585h18c30 0 39 14 39 39c0 22 -12 36 -43 36h-14v-75zM173 581v-63
c0 -10 5 -14 25 -14v-5h-79v5c20 0 26 5 26 14v130c0 9 -6 13 -26 13v4h72c52 0 69 -18 69 -40c0 -20 -12 -36 -46 -41v-2c31 -1 39 -14 41 -36l2 -20c1 -17 9 -24 27 -24v-2c-7 -2 -14 -3 -21 -3c-30 0 -35 9 -36 31l-1 20c-1 24 -11 33 -37 33h-16z" />
    <glyph glyph-name="macron" unicode="&#xaf;" horiz-adv-x="321" 
d="M35 567v39h251v-39h-251z" />
    <glyph glyph-name="degree" unicode="&#xb0;" horiz-adv-x="379" 
d="M190 432c-86 0 -144 62 -144 141c0 78 62 142 143 142c86 0 143 -61 143 -140s-61 -143 -142 -143zM190 440c49 0 83 38 83 133c0 96 -34 134 -84 134c-48 0 -83 -38 -83 -132c0 -97 36 -135 84 -135z" />
    <glyph glyph-name="plusminus" unicode="&#xb1;" 
d="M1 0v697h498v-697h-498zM81 49h338l-169 254zM50 95l170 253l-170 254v-507zM449 95v507l-170 -254zM250 393l169 254h-338z" />
    <glyph glyph-name="twosuperior" unicode="&#xb2;" 
d="M1 0v697h498v-697h-498zM81 49h338l-169 254zM50 95l170 253l-170 254v-507zM449 95v507l-170 -254zM250 393l169 254h-338z" />
    <glyph glyph-name="threesuperior" unicode="&#xb3;" 
d="M1 0v697h498v-697h-498zM81 49h338l-169 254zM50 95l170 253l-170 254v-507zM449 95v507l-170 -254zM250 393l169 254h-338z" />
    <glyph glyph-name="acute" unicode="&#xb4;" horiz-adv-x="238" 
d="M58 534l43 108c27 68 33 92 63 92c22 0 41 -18 41 -41c0 -19 -14 -35 -61 -82l-81 -77h-5z" />
    <glyph glyph-name="mu" unicode="&#xb5;" 
d="M1 0v697h498v-697h-498zM81 49h338l-169 254zM50 95l170 253l-170 254v-507zM449 95v507l-170 -254zM250 393l169 254h-338z" />
    <glyph glyph-name="paragraph" unicode="&#xb6;" horiz-adv-x="669" 
d="M369 -110v282c-178 4 -312 91 -312 240c0 137 112 239 310 239h263v-10c-102 -5 -119 -15 -119 -61v-690h-23v744h-95v-744h-24z" />
    <glyph glyph-name="periodcentered" unicode="&#xb7;" horiz-adv-x="220" 
d="M110 270c-32 0 -58 26 -58 56c0 32 26 58 58 58s58 -26 58 -57s-26 -57 -58 -57z" />
    <glyph glyph-name="cedilla" unicode="&#xb8;" horiz-adv-x="282" 
d="M110 -243c-34 0 -67 10 -98 35l4 5c25 -21 55 -30 83 -30c41 0 60 34 60 69c0 37 -33 59 -77 59c-12 0 -23 -1 -37 -5l-1 1l128 114h9l-75 -70l2 -3c80 0 114 -40 114 -87c0 -50 -46 -88 -112 -88z" />
    <glyph glyph-name="onesuperior" unicode="&#xb9;" 
d="M1 0v697h498v-697h-498zM81 49h338l-169 254zM50 95l170 253l-170 254v-507zM449 95v507l-170 -254zM250 393l169 254h-338z" />
    <glyph glyph-name="ordmasculine" unicode="&#xba;" horiz-adv-x="448" 
d="M224 331c-102 0 -177 72 -177 179c0 106 80 182 178 182c101 0 176 -73 176 -179s-79 -182 -177 -182zM228 339c60 0 90 44 90 172c0 133 -36 173 -97 173s-91 -44 -91 -172c0 -133 36 -173 98 -173z" />
    <glyph glyph-name="guillemotright" unicode="&#xbb;" horiz-adv-x="498" 
d="M441 202l-190 -172l-3 2l132 193l-132 191l3 2l190 -171c14 -12 16 -19 16 -23c0 -5 -2 -10 -16 -22zM246 202l-190 -172l-3 2l132 193l-132 191l3 2l190 -171c14 -12 16 -19 16 -23c0 -5 -2 -10 -16 -22z" />
    <glyph glyph-name="onequarter" unicode="&#xbc;" 
d="M1 0v697h498v-697h-498zM81 49h338l-169 254zM50 95l170 253l-170 254v-507zM449 95v507l-170 -254zM250 393l169 254h-338z" />
    <glyph glyph-name="onehalf" unicode="&#xbd;" 
d="M1 0v697h498v-697h-498zM81 49h338l-169 254zM50 95l170 253l-170 254v-507zM449 95v507l-170 -254zM250 393l169 254h-338z" />
    <glyph glyph-name="threequarters" unicode="&#xbe;" 
d="M1 0v697h498v-697h-498zM81 49h338l-169 254zM50 95l170 253l-170 254v-507zM449 95v507l-170 -254zM250 393l169 254h-338z" />
    <glyph glyph-name="questiondown" unicode="&#xbf;" horiz-adv-x="466" 
d="M278 519v-162c-132 -31 -156 -87 -156 -195c0 -112 51 -171 134 -171c58 0 111 34 127 65c-35 10 -50 33 -50 59c0 29 19 58 56 58c34 0 58 -27 58 -63c0 -69 -87 -127 -203 -127c-141 0 -223 80 -223 175c0 107 95 175 245 206v155h12zM271 724c32 0 58 -26 58 -56
c0 -32 -26 -58 -58 -58s-58 26 -58 57s26 57 58 57z" />
    <glyph glyph-name="Agrave" unicode="&#xc0;" horiz-adv-x="683" 
d="M420 273h-244l-63 -154c-12 -29 -18 -50 -18 -66c0 -33 30 -42 109 -48v-5h-230v5c63 9 88 10 129 114l243 599h4l240 -620c30 -78 37 -84 115 -93v-5h-312v5c51 2 101 0 101 43c0 3 -21 78 -74 225zM179 281h238c-22 55 -102 262 -116 299zM370 774l-80 77
c-48 46 -61 63 -61 82c0 23 18 41 41 41c29 0 34 -24 62 -92l44 -108h-6z" />
    <glyph glyph-name="Aacute" unicode="&#xc1;" horiz-adv-x="683" 
d="M420 273h-244l-63 -154c-12 -29 -18 -50 -18 -66c0 -33 30 -42 109 -48v-5h-230v5c63 9 88 10 129 114l243 599h4l240 -620c30 -78 37 -84 115 -93v-5h-312v5c51 2 101 0 101 43c0 3 -21 78 -74 225zM179 281h238c-22 55 -102 262 -116 299zM316 774l43 108
c27 68 33 92 63 92c22 0 41 -18 41 -41c0 -19 -14 -35 -61 -82l-81 -77h-5z" />
    <glyph glyph-name="Acircumflex" unicode="&#xc2;" horiz-adv-x="683" 
d="M420 273h-244l-63 -154c-12 -29 -18 -50 -18 -66c0 -33 30 -42 109 -48v-5h-230v5c63 9 88 10 129 114l243 599h4l240 -620c30 -78 37 -84 115 -93v-5h-312v5c51 2 101 0 101 43c0 3 -21 78 -74 225zM179 281h238c-22 55 -102 262 -116 299zM206 773l131 185h5l123 -185
h-7l-122 96l-123 -96h-7z" />
    <glyph glyph-name="Atilde" unicode="&#xc3;" horiz-adv-x="683" 
d="M420 273h-244l-63 -154c-12 -29 -18 -50 -18 -66c0 -33 30 -42 109 -48v-5h-230v5c63 9 88 10 129 114l243 599h4l240 -620c30 -78 37 -84 115 -93v-5h-312v5c51 2 101 0 101 43c0 3 -21 78 -74 225zM179 281h238c-22 55 -102 262 -116 299zM189 775c13 82 36 123 89 123
c48 0 114 -50 152 -50c21 0 44 16 56 61h5c-13 -82 -37 -122 -89 -122c-48 0 -114 49 -152 49c-21 0 -44 -16 -56 -61h-5z" />
    <glyph glyph-name="Adieresis" unicode="&#xc4;" horiz-adv-x="683" 
d="M420 273h-244l-63 -154c-12 -29 -18 -50 -18 -66c0 -33 30 -42 109 -48v-5h-230v5c63 9 88 10 129 114l243 599h4l240 -620c30 -78 37 -84 115 -93v-5h-312v5c51 2 101 0 101 43c0 3 -21 78 -74 225zM179 281h238c-22 55 -102 262 -116 299zM431 808c-30 0 -52 22 -52 51
s22 53 51 53c30 0 51 -24 51 -53s-21 -51 -50 -51zM256 808c-29 0 -50 22 -50 51s21 53 49 53c31 0 52 -24 52 -53s-21 -51 -51 -51z" />
    <glyph glyph-name="Aring" unicode="&#xc5;" horiz-adv-x="683" 
d="M-26 5c63 9 88 10 129 114l236 580c-62 2 -102 48 -102 103c0 56 43 103 108 103c64 0 107 -47 107 -103c0 -53 -37 -97 -95 -103l233 -601c30 -78 37 -84 115 -93v-5h-312v5c51 2 101 0 101 43c0 3 -21 78 -74 225h-244l-63 -154c-12 -29 -18 -50 -18 -66
c0 -33 30 -42 109 -48v-5h-230v5zM179 281h238c-22 55 -102 262 -116 299zM345 706c36 0 58 31 58 96c0 74 -20 96 -58 96c-36 0 -58 -22 -58 -96c0 -65 21 -96 58 -96z" />
    <glyph glyph-name="AE" unicode="&#xc6;" horiz-adv-x="1020" 
d="M483 294v366h-4l-232 -366h236zM339 697h594l3 -197l-5 -1c-40 143 -86 190 -143 190h-205v-324h106c78 0 91 25 114 137h5v-282h-5c-23 113 -36 137 -114 137h-106v-349h205c122 0 119 64 173 202l5 -1l-5 -209h-592v5c95 3 114 12 114 57v224h-242l-97 -160
c-53 -87 -54 -107 44 -120v-6h-220v6c72 14 104 31 166 129l300 473c32 50 16 78 -95 84v5z" />
    <glyph glyph-name="Ccedilla" unicode="&#xc7;" horiz-adv-x="705" 
d="M346 -243c-34 0 -67 10 -98 35l4 5c25 -21 55 -30 83 -30c41 0 60 34 60 69c0 37 -33 59 -77 59c-12 0 -23 -1 -37 -5l-1 1l103 92c-195 0 -336 136 -336 357c0 216 158 371 358 371c71 0 132 -28 179 -53l43 61h4v-227h-6c-52 150 -118 211 -231 211
c-123 0 -233 -109 -233 -356c0 -233 132 -341 256 -341c117 0 198 83 244 180l8 -4c-42 -96 -125 -195 -276 -199l-51 -48l2 -3c80 0 114 -40 114 -87c0 -50 -46 -88 -112 -88z" />
    <glyph glyph-name="Egrave" unicode="&#xc8;" horiz-adv-x="680" 
d="M30 0v5c95 3 114 12 114 57v573c0 44 -19 54 -114 57v5h564l3 -197l-5 -1c-40 143 -86 190 -143 190h-205v-324h106c78 0 91 25 114 137h5v-282h-5c-23 113 -36 137 -114 137h-106v-349h205c122 0 119 64 173 202l5 -1l-5 -209h-592zM386 774l-80 77
c-48 46 -61 63 -61 82c0 23 18 41 41 41c29 0 34 -24 62 -92l44 -108h-6z" />
    <glyph glyph-name="Eacute" unicode="&#xc9;" horiz-adv-x="680" 
d="M30 0v5c95 3 114 12 114 57v573c0 44 -19 54 -114 57v5h564l3 -197l-5 -1c-40 143 -86 190 -143 190h-205v-324h106c78 0 91 25 114 137h5v-282h-5c-23 113 -36 137 -114 137h-106v-349h205c122 0 119 64 173 202l5 -1l-5 -209h-592zM326 774l43 108c27 68 33 92 63 92
c22 0 41 -18 41 -41c0 -19 -14 -35 -61 -82l-81 -77h-5z" />
    <glyph glyph-name="Ecircumflex" unicode="&#xca;" horiz-adv-x="680" 
d="M30 0v5c95 3 114 12 114 57v573c0 44 -19 54 -114 57v5h564l3 -197l-5 -1c-40 143 -86 190 -143 190h-205v-324h106c78 0 91 25 114 137h5v-282h-5c-23 113 -36 137 -114 137h-106v-349h205c122 0 119 64 173 202l5 -1l-5 -209h-592zM210 773l131 185h5l123 -185h-7
l-122 96l-123 -96h-7z" />
    <glyph glyph-name="Edieresis" unicode="&#xcb;" horiz-adv-x="680" 
d="M30 0v5c95 3 114 12 114 57v573c0 44 -19 54 -114 57v5h564l3 -197l-5 -1c-40 143 -86 190 -143 190h-205v-324h106c78 0 91 25 114 137h5v-282h-5c-23 113 -36 137 -114 137h-106v-349h205c122 0 119 64 173 202l5 -1l-5 -209h-592zM436 808c-30 0 -52 22 -52 51
s22 53 51 53c30 0 51 -24 51 -53s-21 -51 -50 -51zM261 808c-29 0 -50 22 -50 51s21 53 49 53c31 0 52 -24 52 -53s-21 -51 -51 -51z" />
    <glyph glyph-name="Igrave" unicode="&#xcc;" horiz-adv-x="403" 
d="M35 0v5c98 2 116 12 116 57v573c0 44 -18 54 -116 57v5h333v-5c-98 -3 -117 -13 -117 -57v-573c0 -45 19 -55 117 -57v-5h-333zM243 774l-80 77c-48 46 -61 63 -61 82c0 23 18 41 41 41c29 0 34 -24 62 -92l44 -108h-6z" />
    <glyph glyph-name="Iacute" unicode="&#xcd;" horiz-adv-x="403" 
d="M35 0v5c98 2 116 12 116 57v573c0 44 -18 54 -116 57v5h333v-5c-98 -3 -117 -13 -117 -57v-573c0 -45 19 -55 117 -57v-5h-333zM177 774l43 108c27 68 33 92 63 92c22 0 41 -18 41 -41c0 -19 -14 -35 -61 -82l-81 -77h-5z" />
    <glyph glyph-name="Icircumflex" unicode="&#xce;" horiz-adv-x="403" 
d="M35 0v5c98 2 116 12 116 57v573c0 44 -18 54 -116 57v5h333v-5c-98 -3 -117 -13 -117 -57v-573c0 -45 19 -55 117 -57v-5h-333zM72 773l131 185h5l123 -185h-7l-122 96l-123 -96h-7z" />
    <glyph glyph-name="Idieresis" unicode="&#xcf;" horiz-adv-x="403" 
d="M35 0v5c98 2 116 12 116 57v573c0 44 -18 54 -116 57v5h333v-5c-98 -3 -117 -13 -117 -57v-573c0 -45 19 -55 117 -57v-5h-333zM290 808c-30 0 -52 22 -52 51s22 53 51 53c30 0 51 -24 51 -53s-21 -51 -50 -51zM115 808c-29 0 -50 22 -50 51s21 53 49 53
c31 0 52 -24 52 -53s-21 -51 -51 -51z" />
    <glyph glyph-name="Eth" unicode="&#xd0;" horiz-adv-x="766" 
d="M51 366h100v269c0 44 -19 54 -114 57v5h305c247 0 377 -146 377 -337c0 -183 -114 -360 -367 -360h-315v5c95 3 114 12 114 57v296h-100v8zM251 8h72c209 0 281 88 281 346c0 261 -93 335 -275 335h-78v-323h146v-8h-146v-350z" />
    <glyph glyph-name="Ntilde" unicode="&#xd1;" horiz-adv-x="780" 
d="M641 -16l-466 633h-3v-508c0 -97 21 -91 125 -104v-5h-255v5c98 14 122 7 122 104v487c0 57 -32 91 -122 96v5h201l392 -535l1 425c0 97 -28 95 -131 105v5h255v-5c-97 -11 -116 -9 -116 -105v-603h-3zM266 775c13 82 36 123 89 123c48 0 114 -50 152 -50
c21 0 44 16 56 61h5c-13 -82 -37 -122 -89 -122c-48 0 -114 49 -152 49c-21 0 -44 -16 -56 -61h-5z" />
    <glyph glyph-name="Ograve" unicode="&#xd2;" horiz-adv-x="761" 
d="M380 -17c-177 0 -333 142 -333 364c0 220 162 367 334 367c177 0 334 -142 334 -364c0 -221 -162 -367 -335 -367zM384 -9c128 0 216 71 216 357c0 288 -95 358 -223 358s-215 -71 -215 -357c0 -288 94 -358 222 -358zM412 774l-80 77c-48 46 -61 63 -61 82
c0 23 18 41 41 41c29 0 34 -24 62 -92l44 -108h-6z" />
    <glyph glyph-name="Oacute" unicode="&#xd3;" horiz-adv-x="761" 
d="M380 -17c-177 0 -333 142 -333 364c0 220 162 367 334 367c177 0 334 -142 334 -364c0 -221 -162 -367 -335 -367zM384 -9c128 0 216 71 216 357c0 288 -95 358 -223 358s-215 -71 -215 -357c0 -288 94 -358 222 -358zM352 774l43 108c27 68 33 92 63 92
c22 0 41 -18 41 -41c0 -19 -14 -35 -61 -82l-81 -77h-5z" />
    <glyph glyph-name="Ocircumflex" unicode="&#xd4;" horiz-adv-x="761" 
d="M380 -17c-177 0 -333 142 -333 364c0 220 162 367 334 367c177 0 334 -142 334 -364c0 -221 -162 -367 -335 -367zM384 -9c128 0 216 71 216 357c0 288 -95 358 -223 358s-215 -71 -215 -357c0 -288 94 -358 222 -358zM251 773l131 185h5l123 -185h-7l-122 96l-123 -96
h-7z" />
    <glyph glyph-name="Otilde" unicode="&#xd5;" horiz-adv-x="761" 
d="M380 -17c-177 0 -333 142 -333 364c0 220 162 367 334 367c177 0 334 -142 334 -364c0 -221 -162 -367 -335 -367zM384 -9c128 0 216 71 216 357c0 288 -95 358 -223 358s-215 -71 -215 -357c0 -288 94 -358 222 -358zM241 775c13 82 36 123 89 123c48 0 114 -50 152 -50
c21 0 44 16 56 61h5c-13 -82 -37 -122 -89 -122c-48 0 -114 49 -152 49c-21 0 -44 -16 -56 -61h-5z" />
    <glyph glyph-name="Odieresis" unicode="&#xd6;" horiz-adv-x="761" 
d="M380 -17c-177 0 -333 142 -333 364c0 220 162 367 334 367c177 0 334 -142 334 -364c0 -221 -162 -367 -335 -367zM384 -9c128 0 216 71 216 357c0 288 -95 358 -223 358s-215 -71 -215 -357c0 -288 94 -358 222 -358zM469 808c-30 0 -52 22 -52 51s22 53 51 53
c30 0 51 -24 51 -53s-21 -51 -50 -51zM294 808c-29 0 -50 22 -50 51s21 53 49 53c31 0 52 -24 52 -53s-21 -51 -51 -51z" />
    <glyph glyph-name="multiply" unicode="&#xd7;" 
d="M1 0v697h498v-697h-498zM81 49h338l-169 254zM50 95l170 253l-170 254v-507zM449 95v507l-170 -254zM250 393l169 254h-338z" />
    <glyph glyph-name="Oslash" unicode="&#xd8;" horiz-adv-x="761" 
d="M683 739h12l-91 -114c67 -63 111 -158 111 -275c0 -221 -162 -367 -335 -367c-84 0 -162 31 -222 88l-82 -102h-12l87 108c-63 64 -104 156 -104 270c0 220 162 367 334 367c80 0 156 -30 216 -82zM384 -9c128 0 216 71 216 357c0 102 -13 177 -34 231l-371 -462
c38 -97 106 -126 189 -126zM162 349c0 -97 10 -169 29 -222l371 462c-39 90 -106 117 -185 117c-128 0 -215 -71 -215 -357z" />
    <glyph glyph-name="Ugrave" unicode="&#xd9;" horiz-adv-x="778" 
d="M398 -16c-167 0 -266 75 -266 221v430c0 44 -19 54 -114 57v5h320v-5c-93 -3 -106 -12 -106 -57v-413c0 -157 89 -217 208 -217s196 77 196 221v361c0 97 -28 95 -138 105v5h268v-5c-103 -11 -122 -9 -122 -105v-368c0 -140 -74 -235 -246 -235zM439 774l-80 77
c-48 46 -61 63 -61 82c0 23 18 41 41 41c29 0 34 -24 62 -92l44 -108h-6z" />
    <glyph glyph-name="Uacute" unicode="&#xda;" horiz-adv-x="778" 
d="M398 -16c-167 0 -266 75 -266 221v430c0 44 -19 54 -114 57v5h320v-5c-93 -3 -106 -12 -106 -57v-413c0 -157 89 -217 208 -217s196 77 196 221v361c0 97 -28 95 -138 105v5h268v-5c-103 -11 -122 -9 -122 -105v-368c0 -140 -74 -235 -246 -235zM392 774l43 108
c27 68 33 92 63 92c22 0 41 -18 41 -41c0 -19 -14 -35 -61 -82l-81 -77h-5z" />
    <glyph glyph-name="Ucircumflex" unicode="&#xdb;" horiz-adv-x="778" 
d="M398 -16c-167 0 -266 75 -266 221v430c0 44 -19 54 -114 57v5h320v-5c-93 -3 -106 -12 -106 -57v-413c0 -157 89 -217 208 -217s196 77 196 221v361c0 97 -28 95 -138 105v5h268v-5c-103 -11 -122 -9 -122 -105v-368c0 -140 -74 -235 -246 -235zM296 773l131 185h5
l123 -185h-7l-122 96l-123 -96h-7z" />
    <glyph glyph-name="Udieresis" unicode="&#xdc;" horiz-adv-x="778" 
d="M398 -16c-167 0 -266 75 -266 221v430c0 44 -19 54 -114 57v5h320v-5c-93 -3 -106 -12 -106 -57v-413c0 -157 89 -217 208 -217s196 77 196 221v361c0 97 -28 95 -138 105v5h268v-5c-103 -11 -122 -9 -122 -105v-368c0 -140 -74 -235 -246 -235zM499 808
c-30 0 -52 22 -52 51s22 53 51 53c30 0 51 -24 51 -53s-21 -51 -50 -51zM324 808c-29 0 -50 22 -50 51s21 53 49 53c31 0 52 -24 52 -53s-21 -51 -51 -51z" />
    <glyph glyph-name="Yacute" unicode="&#xdd;" horiz-adv-x="668" 
d="M381 320l143 258c17 31 26 55 26 71c0 31 -30 41 -94 43v5h231v-5c-72 -10 -96 -15 -152 -114l-148 -263v-253c0 -45 23 -54 116 -57v-5h-333v5c99 2 117 12 117 57v233l-180 321c-33 59 -41 69 -113 77v4h307v-5c-69 -4 -96 -12 -96 -35c0 -11 6 -26 16 -44zM352 774
l43 108c27 68 33 92 63 92c22 0 41 -18 41 -41c0 -19 -14 -35 -61 -82l-81 -77h-5z" />
    <glyph glyph-name="Thorn" unicode="&#xde;" horiz-adv-x="638" 
d="M30 0v5c95 3 114 12 114 57v573c0 45 -19 54 -114 57v5h334v-5c-100 -3 -120 -11 -120 -58v-88h76c206 0 282 -77 282 -185c0 -101 -78 -192 -288 -192h-70v-107c0 -47 20 -55 120 -57v-5h-334zM244 176h73c143 0 173 69 173 182c0 101 -32 181 -170 181h-76v-363z" />
    <glyph glyph-name="germandbls" unicode="&#xdf;" horiz-adv-x="569" 
d="M396 -11c-76 0 -129 34 -129 82c0 24 14 46 42 46c26 0 39 -21 39 -42c0 -16 -12 -30 -28 -41c12 -18 39 -37 79 -37c54 0 87 41 87 92c0 54 -45 84 -99 113c-61 33 -108 66 -108 130c0 37 30 66 69 102c45 44 50 68 50 138c0 92 -41 139 -104 139
c-70 0 -103 -44 -103 -158v-553h-164v5c58 1 74 6 74 39v406h-87v8h87v42c0 142 75 219 199 219c118 0 187 -59 187 -137c0 -51 -37 -81 -110 -135c-34 -25 -45 -41 -45 -70c0 -46 52 -73 101 -101c59 -33 117 -69 117 -141c0 -74 -59 -146 -154 -146z" />
    <glyph glyph-name="agrave" unicode="&#xe0;" horiz-adv-x="481" 
d="M165 -6c-84 0 -123 52 -123 107c0 41 19 73 61 96c62 34 184 54 212 58v75c0 81 -26 125 -90 125c-50 0 -91 -23 -106 -41c25 -3 43 -29 43 -49c0 -29 -19 -51 -51 -51c-31 0 -49 24 -49 51c0 56 74 98 175 98c105 0 168 -41 168 -138v-268c0 -31 6 -43 25 -43
c12 0 30 6 54 15l2 -3c-32 -19 -58 -31 -90 -31c-52 0 -77 26 -80 83h-1c-38 -45 -89 -84 -150 -84zM215 27c40 0 75 29 100 61v161c-146 -27 -178 -55 -178 -132c0 -62 25 -90 78 -90zM257 534l-80 77c-48 46 -61 63 -61 82c0 23 18 41 41 41c29 0 34 -24 62 -92l44 -108
h-6z" />
    <glyph glyph-name="aacute" unicode="&#xe1;" horiz-adv-x="481" 
d="M165 -6c-84 0 -123 52 -123 107c0 41 19 73 61 96c62 34 184 54 212 58v75c0 81 -26 125 -90 125c-50 0 -91 -23 -106 -41c25 -3 43 -29 43 -49c0 -29 -19 -51 -51 -51c-31 0 -49 24 -49 51c0 56 74 98 175 98c105 0 168 -41 168 -138v-268c0 -31 6 -43 25 -43
c12 0 30 6 54 15l2 -3c-32 -19 -58 -31 -90 -31c-52 0 -77 26 -80 83h-1c-38 -45 -89 -84 -150 -84zM215 27c40 0 75 29 100 61v161c-146 -27 -178 -55 -178 -132c0 -62 25 -90 78 -90zM218 534l43 108c27 68 33 92 63 92c22 0 41 -18 41 -41c0 -19 -14 -35 -61 -82l-81 -77
h-5z" />
    <glyph glyph-name="acircumflex" unicode="&#xe2;" horiz-adv-x="481" 
d="M165 -6c-84 0 -123 52 -123 107c0 41 19 73 61 96c62 34 184 54 212 58v75c0 81 -26 125 -90 125c-50 0 -91 -23 -106 -41c25 -3 43 -29 43 -49c0 -29 -19 -51 -51 -51c-31 0 -49 24 -49 51c0 56 74 98 175 98c105 0 168 -41 168 -138v-268c0 -31 6 -43 25 -43
c12 0 30 6 54 15l2 -3c-32 -19 -58 -31 -90 -31c-52 0 -77 26 -80 83h-1c-38 -45 -89 -84 -150 -84zM215 27c40 0 75 29 100 61v161c-146 -27 -178 -55 -178 -132c0 -62 25 -90 78 -90zM114 533l131 185h5l123 -185h-7l-122 96l-123 -96h-7z" />
    <glyph glyph-name="atilde" unicode="&#xe3;" horiz-adv-x="481" 
d="M165 -6c-84 0 -123 52 -123 107c0 41 19 73 61 96c62 34 184 54 212 58v75c0 81 -26 125 -90 125c-50 0 -91 -23 -106 -41c25 -3 43 -29 43 -49c0 -29 -19 -51 -51 -51c-31 0 -49 24 -49 51c0 56 74 98 175 98c105 0 168 -41 168 -138v-268c0 -31 6 -43 25 -43
c12 0 30 6 54 15l2 -3c-32 -19 -58 -31 -90 -31c-52 0 -77 26 -80 83h-1c-38 -45 -89 -84 -150 -84zM215 27c40 0 75 29 100 61v161c-146 -27 -178 -55 -178 -132c0 -62 25 -90 78 -90zM96 535c13 82 36 123 89 123c48 0 114 -50 152 -50c21 0 44 16 56 61h5
c-13 -82 -37 -122 -89 -122c-48 0 -114 49 -152 49c-21 0 -44 -16 -56 -61h-5z" />
    <glyph glyph-name="adieresis" unicode="&#xe4;" horiz-adv-x="481" 
d="M165 -6c-84 0 -123 52 -123 107c0 41 19 73 61 96c62 34 184 54 212 58v75c0 81 -26 125 -90 125c-50 0 -91 -23 -106 -41c25 -3 43 -29 43 -49c0 -29 -19 -51 -51 -51c-31 0 -49 24 -49 51c0 56 74 98 175 98c105 0 168 -41 168 -138v-268c0 -31 6 -43 25 -43
c12 0 30 6 54 15l2 -3c-32 -19 -58 -31 -90 -31c-52 0 -77 26 -80 83h-1c-38 -45 -89 -84 -150 -84zM215 27c40 0 75 29 100 61v161c-146 -27 -178 -55 -178 -132c0 -62 25 -90 78 -90zM330 568c-30 0 -52 22 -52 51s22 53 51 53c30 0 51 -24 51 -53s-21 -51 -50 -51z
M155 568c-29 0 -50 22 -50 51s21 53 49 53c31 0 52 -24 52 -53s-21 -51 -51 -51z" />
    <glyph glyph-name="aring" unicode="&#xe5;" horiz-adv-x="481" 
d="M165 -6c-84 0 -123 52 -123 107c0 41 19 73 61 96c62 34 184 54 212 58v75c0 81 -26 125 -90 125c-50 0 -91 -23 -106 -41c25 -3 43 -29 43 -49c0 -29 -19 -51 -51 -51c-31 0 -49 24 -49 51c0 56 74 98 175 98c105 0 168 -41 168 -138v-268c0 -31 6 -43 25 -43
c12 0 30 6 54 15l2 -3c-32 -19 -58 -31 -90 -31c-52 0 -77 26 -80 83h-1c-38 -45 -89 -84 -150 -84zM215 27c40 0 75 29 100 61v161c-146 -27 -178 -55 -178 -132c0 -62 25 -90 78 -90zM245 537c-65 0 -108 47 -108 103s43 103 108 103c64 0 107 -47 107 -103
s-42 -103 -107 -103zM245 544c36 0 58 31 58 96c0 74 -20 96 -58 96c-36 0 -58 -22 -58 -96c0 -65 21 -96 58 -96z" />
    <glyph glyph-name="ae" unicode="&#xe6;" horiz-adv-x="760" 
d="M237 463c73 0 121 -22 143 -69c40 44 96 70 156 70c123 0 191 -83 191 -187c0 -6 -1 -12 -1 -18h-312v-2c-1 -9 -1 -19 -1 -29c0 -120 56 -218 158 -218c66 0 109 48 150 102l5 -3c-43 -64 -94 -120 -191 -120c-82 0 -162 57 -181 127h-3c-38 -84 -125 -122 -186 -122
c-84 0 -123 52 -123 107c0 41 19 73 61 96c62 34 184 54 212 58v75c0 81 -26 125 -90 125c-50 0 -91 -23 -106 -41c25 -3 43 -29 43 -49c0 -29 -19 -51 -51 -51c-31 0 -49 24 -49 51c0 56 74 98 175 98zM415 267h215c1 12 1 23 1 34c0 91 -30 156 -101 156
c-66 0 -107 -74 -115 -190zM215 27c40 0 76 16 100 51v171c-146 -27 -178 -55 -178 -132c0 -62 25 -90 78 -90z" />
    <glyph glyph-name="ccedilla" unicode="&#xe7;" horiz-adv-x="458" 
d="M222 -243c-34 0 -67 10 -98 35l4 5c25 -21 55 -30 83 -30c41 0 60 34 60 69c0 37 -33 59 -77 59c-12 0 -23 -1 -37 -5l-1 1l111 99c-6 0 -13 -1 -19 -1c-129 0 -214 98 -214 230c0 143 106 245 235 245c105 0 155 -52 155 -92c0 -29 -18 -54 -50 -54c-31 0 -49 20 -49 47
c0 25 14 43 40 51c-15 16 -40 42 -95 42c-77 0 -139 -85 -139 -222c0 -118 54 -216 161 -216c58 0 98 27 141 84l4 -3c-38 -54 -82 -101 -159 -110l-60 -56l2 -3c80 0 114 -40 114 -87c0 -50 -46 -88 -112 -88z" />
    <glyph glyph-name="egrave" unicode="&#xe8;" horiz-adv-x="477" 
d="M133 267h215c1 12 1 23 1 34c0 91 -30 156 -101 156c-66 0 -107 -74 -115 -190zM132 259v-2c-1 -9 -1 -19 -1 -29c0 -120 56 -218 158 -218c66 0 109 48 150 102l5 -3c-43 -64 -94 -120 -191 -120c-128 0 -219 95 -219 232c0 138 100 243 220 243c123 0 191 -83 191 -187
c0 -6 -1 -12 -1 -18h-312zM267 534l-80 77c-48 46 -61 63 -61 82c0 23 18 41 41 41c29 0 34 -24 62 -92l44 -108h-6z" />
    <glyph glyph-name="eacute" unicode="&#xe9;" horiz-adv-x="477" 
d="M133 267h215c1 12 1 23 1 34c0 91 -30 156 -101 156c-66 0 -107 -74 -115 -190zM132 259v-2c-1 -9 -1 -19 -1 -29c0 -120 56 -218 158 -218c66 0 109 48 150 102l5 -3c-43 -64 -94 -120 -191 -120c-128 0 -219 95 -219 232c0 138 100 243 220 243c123 0 191 -83 191 -187
c0 -6 -1 -12 -1 -18h-312zM228 534l43 108c27 68 33 92 63 92c22 0 41 -18 41 -41c0 -19 -14 -35 -61 -82l-81 -77h-5z" />
    <glyph glyph-name="ecircumflex" unicode="&#xea;" horiz-adv-x="477" 
d="M133 267h215c1 12 1 23 1 34c0 91 -30 156 -101 156c-66 0 -107 -74 -115 -190zM132 259v-2c-1 -9 -1 -19 -1 -29c0 -120 56 -218 158 -218c66 0 109 48 150 102l5 -3c-43 -64 -94 -120 -191 -120c-128 0 -219 95 -219 232c0 138 100 243 220 243c123 0 191 -83 191 -187
c0 -6 -1 -12 -1 -18h-312zM121 533l131 185h5l123 -185h-7l-122 96l-123 -96h-7z" />
    <glyph glyph-name="edieresis" unicode="&#xeb;" horiz-adv-x="477" 
d="M133 267h215c1 12 1 23 1 34c0 91 -30 156 -101 156c-66 0 -107 -74 -115 -190zM132 259v-2c-1 -9 -1 -19 -1 -29c0 -120 56 -218 158 -218c66 0 109 48 150 102l5 -3c-43 -64 -94 -120 -191 -120c-128 0 -219 95 -219 232c0 138 100 243 220 243c123 0 191 -83 191 -187
c0 -6 -1 -12 -1 -18h-312zM340 568c-30 0 -52 22 -52 51s22 53 51 53c30 0 51 -24 51 -53s-21 -51 -50 -51zM165 568c-29 0 -50 22 -50 51s21 53 49 53c31 0 52 -24 52 -53s-21 -51 -51 -51z" />
    <glyph glyph-name="igrave" unicode="&#xec;" horiz-adv-x="278" 
d="M148 534l-80 77c-48 46 -61 63 -61 82c0 23 18 41 41 41c29 0 34 -24 62 -92l44 -108h-6zM24 0v5c58 1 75 6 75 39v362c0 31 -13 43 -75 46v4l165 5v-417c0 -33 14 -38 74 -39v-5h-239z" />
    <glyph glyph-name="iacute" unicode="&#xed;" horiz-adv-x="278" 
d="M102 534l43 108c27 68 33 92 63 92c22 0 41 -18 41 -41c0 -19 -14 -35 -61 -82l-81 -77h-5zM24 0v5c58 1 75 6 75 39v362c0 31 -13 43 -75 46v4l165 5v-417c0 -33 14 -38 74 -39v-5h-239z" />
    <glyph glyph-name="icircumflex" unicode="&#xee;" horiz-adv-x="278" 
d="M24 0v5c58 1 75 6 75 39v362c0 31 -13 43 -75 46v4l165 5v-417c0 -33 14 -38 74 -39v-5h-239zM-2 533l131 185h5l123 -185h-7l-122 96l-123 -96h-7z" />
    <glyph glyph-name="idieresis" unicode="&#xef;" horiz-adv-x="278" 
d="M219 568c-30 0 -52 22 -52 51s22 53 51 53c30 0 51 -24 51 -53s-21 -51 -50 -51zM44 568c-29 0 -50 22 -50 51s21 53 49 53c31 0 52 -24 52 -53s-21 -51 -51 -51zM24 0v5c58 1 75 6 75 39v362c0 31 -13 43 -75 46v4l165 5v-417c0 -33 14 -38 74 -39v-5h-239z" />
    <glyph glyph-name="eth" unicode="&#xf0;" horiz-adv-x="531" 
d="M272 -4c71 0 117 69 117 248c0 139 -43 213 -120 213c-74 0 -129 -74 -129 -231c0 -167 49 -230 132 -230zM296 594c0 0 -101 -48 -122 -59l-2 7l120 58c-37 40 -86 81 -146 108l2 5c66 -20 135 -49 189 -91l93 44l2 -5l-89 -44c85 -71 147 -175 147 -310
c0 -197 -94 -318 -231 -318c-113 0 -219 97 -219 233c0 139 112 242 220 242c57 0 94 -26 118 -64l4 2c-9 68 -39 137 -86 192z" />
    <glyph glyph-name="ntilde" unicode="&#xf1;" horiz-adv-x="553" 
d="M19 0v5c57 1 74 6 74 39v357c0 31 -12 47 -74 50v5l162 5v-112c44 71 105 115 173 115c78 0 122 -48 122 -137v-283c0 -32 15 -38 72 -39v-5h-226v5c49 1 64 7 64 39v269c0 75 -22 116 -85 116c-47 0 -90 -39 -118 -94v-291c0 -32 14 -38 63 -39v-5h-227zM125 535
c13 82 36 123 89 123c48 0 114 -50 152 -50c21 0 44 16 56 61h5c-13 -82 -37 -122 -89 -122c-48 0 -114 49 -152 49c-21 0 -44 -16 -56 -61h-5z" />
    <glyph glyph-name="ograve" unicode="&#xf2;" horiz-adv-x="525" 
d="M262 -11c-126 0 -228 95 -228 236s108 239 229 239c125 0 227 -94 227 -235s-107 -240 -228 -240zM268 -5c78 0 122 61 122 232s-52 231 -132 231c-79 0 -124 -60 -124 -231c0 -170 54 -232 134 -232zM275 534l-80 77c-48 46 -61 63 -61 82c0 23 18 41 41 41
c29 0 34 -24 62 -92l44 -108h-6z" />
    <glyph glyph-name="oacute" unicode="&#xf3;" horiz-adv-x="525" 
d="M262 -11c-126 0 -228 95 -228 236s108 239 229 239c125 0 227 -94 227 -235s-107 -240 -228 -240zM268 -5c78 0 122 61 122 232s-52 231 -132 231c-79 0 -124 -60 -124 -231c0 -170 54 -232 134 -232zM240 534l43 108c27 68 33 92 63 92c22 0 41 -18 41 -41
c0 -19 -14 -35 -61 -82l-81 -77h-5z" />
    <glyph glyph-name="ocircumflex" unicode="&#xf4;" horiz-adv-x="525" 
d="M262 -11c-126 0 -228 95 -228 236s108 239 229 239c125 0 227 -94 227 -235s-107 -240 -228 -240zM268 -5c78 0 122 61 122 232s-52 231 -132 231c-79 0 -124 -60 -124 -231c0 -170 54 -232 134 -232zM134 533l131 185h5l123 -185h-7l-122 96l-123 -96h-7z" />
    <glyph glyph-name="otilde" unicode="&#xf5;" horiz-adv-x="525" 
d="M262 -11c-126 0 -228 95 -228 236s108 239 229 239c125 0 227 -94 227 -235s-107 -240 -228 -240zM268 -5c78 0 122 61 122 232s-52 231 -132 231c-79 0 -124 -60 -124 -231c0 -170 54 -232 134 -232zM111 535c13 82 36 123 89 123c48 0 114 -50 152 -50
c21 0 44 16 56 61h5c-13 -82 -37 -122 -89 -122c-48 0 -114 49 -152 49c-21 0 -44 -16 -56 -61h-5z" />
    <glyph glyph-name="odieresis" unicode="&#xf6;" horiz-adv-x="525" 
d="M262 -11c-126 0 -228 95 -228 236s108 239 229 239c125 0 227 -94 227 -235s-107 -240 -228 -240zM268 -5c78 0 122 61 122 232s-52 231 -132 231c-79 0 -124 -60 -124 -231c0 -170 54 -232 134 -232zM350 568c-30 0 -52 22 -52 51s22 53 51 53c30 0 51 -24 51 -53
s-21 -51 -50 -51zM175 568c-29 0 -50 22 -50 51s21 53 49 53c31 0 52 -24 52 -53s-21 -51 -51 -51z" />
    <glyph glyph-name="divide" unicode="&#xf7;" 
d="M1 0v697h498v-697h-498zM81 49h338l-169 254zM50 95l170 253l-170 254v-507zM449 95v507l-170 -254zM250 393l169 254h-338z" />
    <glyph glyph-name="oslash" unicode="&#xf8;" horiz-adv-x="525" 
d="M462 487h11l-62 -77c48 -41 79 -104 79 -181c0 -141 -107 -240 -228 -240c-56 0 -108 18 -148 52l-52 -65h-10l56 70c-46 42 -74 104 -74 179c0 141 108 239 229 239c53 0 103 -18 142 -49zM268 -5c78 0 122 61 122 232c0 57 -6 102 -17 136l-221 -276
c22 -66 63 -92 116 -92zM134 227c0 -54 5 -97 15 -130l221 275c-22 61 -62 86 -112 86c-79 0 -124 -60 -124 -231z" />
    <glyph glyph-name="ugrave" unicode="&#xf9;" horiz-adv-x="543" 
d="M205 -7c-78 0 -124 48 -124 138v272c0 31 -13 45 -74 49v4l164 5v-315c0 -75 22 -116 85 -116c47 0 85 38 115 93v280c0 31 -12 46 -75 49v4l165 5v-419c0 -27 17 -36 75 -38v-4h-165v108c-43 -71 -99 -115 -166 -115zM287 534l-80 77c-48 46 -61 63 -61 82
c0 23 18 41 41 41c29 0 34 -24 62 -92l44 -108h-6z" />
    <glyph glyph-name="uacute" unicode="&#xfa;" horiz-adv-x="543" 
d="M205 -7c-78 0 -124 48 -124 138v272c0 31 -13 45 -74 49v4l164 5v-315c0 -75 22 -116 85 -116c47 0 85 38 115 93v280c0 31 -12 46 -75 49v4l165 5v-419c0 -27 17 -36 75 -38v-4h-165v108c-43 -71 -99 -115 -166 -115zM221 534l43 108c27 68 33 92 63 92
c22 0 41 -18 41 -41c0 -19 -14 -35 -61 -82l-81 -77h-5z" />
    <glyph glyph-name="ucircumflex" unicode="&#xfb;" horiz-adv-x="543" 
d="M205 -7c-78 0 -124 48 -124 138v272c0 31 -13 45 -74 49v4l164 5v-315c0 -75 22 -116 85 -116c47 0 85 38 115 93v280c0 31 -12 46 -75 49v4l165 5v-419c0 -27 17 -36 75 -38v-4h-165v108c-43 -71 -99 -115 -166 -115zM127 533l131 185h5l123 -185h-7l-122 96l-123 -96
h-7z" />
    <glyph glyph-name="udieresis" unicode="&#xfc;" horiz-adv-x="543" 
d="M205 -7c-78 0 -124 48 -124 138v272c0 31 -13 45 -74 49v4l164 5v-315c0 -75 22 -116 85 -116c47 0 85 38 115 93v280c0 31 -12 46 -75 49v4l165 5v-419c0 -27 17 -36 75 -38v-4h-165v108c-43 -71 -99 -115 -166 -115zM344 568c-30 0 -52 22 -52 51s22 53 51 53
c30 0 51 -24 51 -53s-21 -51 -50 -51zM169 568c-29 0 -50 22 -50 51s21 53 49 53c31 0 52 -24 52 -53s-21 -51 -51 -51z" />
    <glyph glyph-name="yacute" unicode="&#xfd;" horiz-adv-x="483" 
d="M249 -8l-173 386c-24 54 -39 70 -91 75v5h236v-5c-65 -4 -73 -25 -57 -64l126 -297l107 268c30 75 16 88 -64 93v5h169v-5c-52 -4 -68 -28 -92 -88l-161 -397c-54 -132 -96 -167 -146 -167c-40 0 -65 29 -65 60c0 26 17 52 48 52c26 0 47 -23 47 -51
c0 -18 -3 -35 -14 -46c33 4 73 31 123 159zM265 534l43 108c27 68 33 92 63 92c22 0 41 -18 41 -41c0 -19 -14 -35 -61 -82l-81 -77h-5z" />
    <glyph glyph-name="thorn" unicode="&#xfe;" horiz-adv-x="532" 
d="M-3 -192v10c58 1 74 7 74 39v795c0 34 -9 47 -82 50v10l171 5v-325c43 41 89 72 151 72c115 0 185 -96 185 -224c0 -136 -88 -240 -214 -240c-51 0 -87 14 -122 33v-175c0 -33 21 -39 97 -39v-11h-260zM271 8c82 0 126 90 126 226c0 109 -46 201 -130 201
c-41 0 -77 -22 -107 -57v-291c21 -56 61 -79 111 -79z" />
    <glyph glyph-name="ydieresis" unicode="&#xff;" horiz-adv-x="483" 
d="M249 -8l-173 386c-24 54 -39 70 -91 75v5h236v-5c-65 -4 -73 -25 -57 -64l126 -297l107 268c30 75 16 88 -64 93v5h169v-5c-52 -4 -68 -28 -92 -88l-161 -397c-54 -132 -96 -167 -146 -167c-40 0 -65 29 -65 60c0 26 17 52 48 52c26 0 47 -23 47 -51
c0 -18 -3 -35 -14 -46c33 4 73 31 123 159zM360 568c-30 0 -52 22 -52 51s22 53 51 53c30 0 51 -24 51 -53s-21 -51 -50 -51zM185 568c-29 0 -50 22 -50 51s21 53 49 53c31 0 52 -24 52 -53s-21 -51 -51 -51z" />
    <glyph glyph-name="dotlessi" unicode="&#x131;" horiz-adv-x="278" 
d="M24 0v5c58 1 75 6 75 39v362c0 31 -13 43 -75 46v4l165 5v-417c0 -33 14 -38 74 -39v-5h-239z" />
    <glyph glyph-name="Lslash" unicode="&#x141;" horiz-adv-x="620" 
d="M386 404l2 -9l-146 -39v-348h190c77 0 97 45 155 210l5 -1l-10 -217h-554v5c95 3 114 22 114 67v257l-88 -23l-3 9l91 24v296c0 44 -19 54 -114 57v5h324v-5c-98 -3 -110 -11 -110 -57v-270z" />
    <glyph glyph-name="lslash" unicode="&#x142;" horiz-adv-x="309" 
d="M305 393l2 -9l-98 -27v-313c0 -32 14 -38 73 -39v-5h-237v5c58 1 74 7 74 39v289l-92 -25l-3 9l95 25v321c0 34 -9 42 -81 45v4l171 5v-350z" />
    <glyph glyph-name="OE" unicode="&#x152;" horiz-adv-x="1054" 
d="M403 697h564l3 -197l-5 -1c-40 143 -86 190 -143 190h-205v-324h106c78 0 91 25 114 137h5v-282h-5c-23 113 -36 137 -114 137h-106v-349h205c122 0 119 64 173 202l5 -1l-5 -209h-592c-177 0 -356 125 -356 347c0 220 184 350 356 350zM403 689
c-128 0 -241 -54 -241 -340c0 -288 113 -341 241 -341c95 0 114 12 114 57v567c0 44 -19 54 -114 57z" />
    <glyph glyph-name="oe" unicode="&#x153;" horiz-adv-x="834" 
d="M263 464c72 0 138 -32 179 -87c41 54 101 87 169 87c123 0 191 -83 191 -187c0 -6 -1 -12 -1 -18h-312v-2c-1 -9 -1 -19 -1 -29c0 -120 56 -218 158 -218c66 0 109 48 150 102l5 -3c-43 -64 -94 -120 -191 -120c-73 0 -135 31 -174 84c-42 -53 -106 -84 -174 -84
c-126 0 -228 95 -228 236s108 239 229 239zM268 -5c78 0 122 61 122 232s-52 231 -132 231c-79 0 -124 -60 -124 -231c0 -170 54 -232 134 -232zM490 267h215c1 12 1 23 1 34c0 91 -30 156 -101 156c-66 0 -107 -74 -115 -190z" />
    <glyph glyph-name="Scaron" unicode="&#x160;" horiz-adv-x="576" 
d="M59 -18l-2 248h5c58 -148 126 -236 240 -236c103 0 155 77 155 148c0 89 -55 125 -183 167c-112 36 -204 71 -204 194c0 128 102 208 230 208c60 0 120 -19 157 -39l33 45h4l2 -221h-5c-58 157 -115 207 -200 207c-75 0 -141 -57 -141 -140c0 -88 60 -119 179 -157
c108 -35 201 -74 201 -198c0 -106 -71 -222 -234 -222c-60 0 -140 23 -182 50l-51 -54h-4zM307 782l-131 185h7l123 -96l122 96h7l-123 -185h-5z" />
    <glyph glyph-name="scaron" unicode="&#x161;" horiz-adv-x="411" 
d="M46 -11v164h4c49 -119 78 -157 160 -157c68 0 106 48 106 92c0 49 -29 74 -128 102c-101 28 -145 60 -145 132c0 81 68 142 162 142c51 0 90 -17 114 -36l24 36h4v-146h-4c-48 99 -61 139 -148 139c-51 0 -91 -40 -91 -89c0 -45 41 -68 123 -91c101 -28 146 -64 146 -138
c0 -84 -62 -150 -162 -150c-60 0 -102 18 -129 42l-31 -42h-5zM221 542l-131 185h7l123 -96l122 96h7l-123 -185h-5z" />
    <glyph glyph-name="Ydieresis" unicode="&#x178;" horiz-adv-x="668" 
d="M381 320l143 258c17 31 26 55 26 71c0 31 -30 41 -94 43v5h231v-5c-72 -10 -96 -15 -152 -114l-148 -263v-253c0 -45 23 -54 116 -57v-5h-333v5c99 2 117 12 117 57v233l-180 321c-33 59 -41 69 -113 77v4h307v-5c-69 -4 -96 -12 -96 -35c0 -11 6 -26 16 -44zM469 808
c-30 0 -52 22 -52 51s22 53 51 53c30 0 51 -24 51 -53s-21 -51 -50 -51zM294 808c-29 0 -50 22 -50 51s21 53 49 53c31 0 52 -24 52 -53s-21 -51 -51 -51z" />
    <glyph glyph-name="Zcaron" unicode="&#x17d;" horiz-adv-x="636" 
d="M38 0l-1 2l439 687h-245c-71 0 -103 -58 -164 -200l-4 1l18 207h515l1 -2l-441 -687h267c76 0 113 46 171 209l5 -1l-15 -216h-546zM322 782l-131 185h7l123 -96l122 96h7l-123 -185h-5z" />
    <glyph glyph-name="zcaron" unicode="&#x17e;" horiz-adv-x="460" 
d="M28 0l-1 3l308 447h-140c-56 0 -84 -34 -137 -149l-6 1l17 156h367l1 -3l-307 -447h153c59 0 89 33 139 157l6 -1l-15 -164h-385zM229 542l-131 185h7l123 -96l122 96h7l-123 -185h-5z" />
    <glyph glyph-name="florin" unicode="&#x192;" horiz-adv-x="546" 
d="M292 382l-41 -311c-21 -159 -74 -230 -182 -230c-74 0 -120 37 -120 82c0 39 25 56 52 56c31 0 51 -22 51 -53c0 -21 -13 -43 -36 -51c7 -9 24 -26 53 -26c40 0 65 45 77 137c17 130 34 265 50 396c1 0 -114 0 -114 0v8h117c18 217 102 276 210 276c69 0 128 -35 128 -82
c0 -39 -20 -61 -50 -61c-33 0 -55 18 -55 53c0 20 11 42 29 57c-8 13 -25 25 -52 25c-51 0 -87 -51 -100 -151l-15 -117h133v-8h-135z" />
    <glyph glyph-name="circumflex" unicode="&#x2c6;" horiz-adv-x="303" 
d="M22 533l131 185h5l123 -185h-7l-122 96l-123 -96h-7z" />
    <glyph glyph-name="caron" unicode="&#x2c7;" horiz-adv-x="303" 
d="M152 542l-131 185h7l123 -96l122 96h7l-123 -185h-5z" />
    <glyph glyph-name="breve" unicode="&#x2d8;" horiz-adv-x="336" 
d="M168 540c-73 0 -120 63 -129 154h5c22 -64 65 -90 125 -90s101 26 123 90h5c-8 -91 -55 -154 -129 -154z" />
    <glyph glyph-name="dotaccent" unicode="&#x2d9;" horiz-adv-x="200" 
d="M98 568c-29 0 -50 22 -50 51s21 53 49 53c31 0 52 -24 52 -53s-21 -51 -51 -51z" />
    <glyph glyph-name="ring" unicode="&#x2da;" horiz-adv-x="261" 
d="M131 537c-65 0 -108 47 -108 103s43 103 108 103c64 0 107 -47 107 -103s-42 -103 -107 -103zM131 544c36 0 58 31 58 96c0 74 -20 96 -58 96c-36 0 -58 -22 -58 -96c0 -65 21 -96 58 -96z" />
    <glyph glyph-name="ogonek" unicode="&#x2db;" horiz-adv-x="269" 
d="M99 -243c-53 0 -95 28 -95 79c0 43 29 78 117 140l54 38h7l-51 -46c-46 -42 -57 -82 -57 -123c0 -55 29 -65 64 -65c20 0 39 5 62 15l2 -3c-29 -20 -65 -35 -103 -35z" />
    <glyph glyph-name="tilde" unicode="&#x2dc;" horiz-adv-x="336" 
d="M17 535c13 82 36 123 89 123c48 0 114 -50 152 -50c21 0 44 16 56 61h5c-13 -82 -37 -122 -89 -122c-48 0 -114 49 -152 49c-21 0 -44 -16 -56 -61h-5z" />
    <glyph glyph-name="hungarumlaut" unicode="&#x2dd;" horiz-adv-x="294" 
d="M144 534l50 108c32 68 38 91 67 91c22 0 38 -15 38 -38c0 -19 -13 -35 -66 -84l-84 -77h-5zM-3 534l49 108c31 68 39 91 67 91c22 0 38 -15 38 -38c0 -19 -15 -36 -66 -84l-84 -77h-4z" />
    <glyph glyph-name="Omega" unicode="&#x3a9;" 
d="M1 0v697h498v-697h-498zM81 49h338l-169 254zM50 95l170 253l-170 254v-507zM449 95v507l-170 -254zM250 393l169 254h-338z" />
    <glyph glyph-name="pi" unicode="&#x3c0;" horiz-adv-x="834" 
d="M417 -34c-216 0 -383 165 -383 383c0 215 167 382 383 382s383 -167 383 -382c0 -218 -167 -383 -383 -383zM417 -19c208 0 365 165 365 368s-157 367 -365 367s-365 -164 -365 -367s157 -368 365 -368zM256 157v7c50 2 61 9 61 28v321c0 19 -11 27 -61 29v6h169
c112 0 162 -46 162 -111c0 -62 -49 -114 -166 -114h-37v-131c0 -20 11 -27 65 -29v-6h-193zM384 333h38c71 0 95 32 95 104c0 64 -28 102 -93 102h-40v-206z" />
    <glyph glyph-name="afii10023" unicode="&#x401;" horiz-adv-x="680" 
d="M438 808c-30 0 -52 22 -52 51s22 53 51 53c30 0 51 -24 51 -53s-21 -51 -50 -51zM263 808c-29 0 -50 22 -50 51s21 53 49 53c31 0 52 -24 52 -53s-21 -51 -51 -51zM30 0v5c95 3 114 12 114 57v573c0 44 -19 54 -114 57v5h564l3 -197l-5 -1c-40 143 -86 190 -143 190h-205
v-324h106c78 0 91 25 114 137h5v-282h-5c-23 113 -36 137 -114 137h-106v-349h205c122 0 119 64 173 202l5 -1l-5 -209h-592z" />
    <glyph glyph-name="afii10051" unicode="&#x402;" horiz-adv-x="897" 
d="M396 689v-381c63 70 154 119 228 119c133 0 240 -73 240 -213c0 -106 -65 -226 -256 -226c-93 0 -158 44 -158 102c0 33 20 61 56 61c33 0 52 -27 52 -54c0 -26 -17 -46 -36 -57c11 -19 28 -43 86 -43c108 0 145 111 145 217c0 94 -58 168 -171 168
c-57 0 -137 -25 -186 -86v-296h-222v5c97 2 123 12 123 57v627h-109c-73 0 -88 -53 -147 -193l-4 1l6 200h608l6 -200l-5 -1c-48 145 -93 193 -140 193h-116z" />
    <glyph glyph-name="afii10052" unicode="&#x403;" horiz-adv-x="613" 
d="M285 774l43 108c27 68 33 92 63 92c22 0 41 -18 41 -41c0 -19 -14 -35 -61 -82l-81 -77h-5zM30 0v5c95 3 114 12 114 57v574c0 44 -19 53 -114 56v5h552l9 -220l-5 -1c-58 149 -79 213 -159 213h-183v-627c0 -46 19 -55 120 -57v-5h-334z" />
    <glyph glyph-name="afii10053" unicode="&#x404;" horiz-adv-x="705" 
d="M384 -17c-196 0 -337 136 -337 357c0 216 158 371 358 371c71 0 132 -28 179 -53l43 61h4v-227h-6c-52 150 -118 211 -231 211c-120 0 -228 -103 -233 -336h288v-8h-288v-12c0 -233 132 -341 256 -341c117 0 198 83 244 180l8 -4c-43 -98 -128 -199 -285 -199z" />
    <glyph glyph-name="afii10054" unicode="&#x405;" horiz-adv-x="576" 
d="M59 -18l-2 248h5c58 -148 126 -236 240 -236c103 0 155 77 155 148c0 89 -55 125 -183 167c-112 36 -204 71 -204 194c0 128 102 208 230 208c60 0 120 -19 157 -39l33 45h4l2 -221h-5c-58 157 -115 207 -200 207c-75 0 -141 -57 -141 -140c0 -88 60 -119 179 -157
c108 -35 201 -74 201 -198c0 -106 -71 -222 -234 -222c-60 0 -140 23 -182 50l-51 -54h-4z" />
    <glyph glyph-name="afii10055" unicode="&#x406;" horiz-adv-x="403" 
d="M35 0v5c98 2 116 12 116 57v573c0 44 -18 54 -116 57v5h333v-5c-98 -3 -117 -13 -117 -57v-573c0 -45 19 -55 117 -57v-5h-333z" />
    <glyph glyph-name="afii10056" unicode="&#x407;" horiz-adv-x="403" 
d="M289 808c-30 0 -52 22 -52 51s22 53 51 53c30 0 51 -24 51 -53s-21 -51 -50 -51zM114 808c-29 0 -50 22 -50 51s21 53 49 53c31 0 52 -24 52 -53s-21 -51 -51 -51zM35 0v5c98 2 116 12 116 57v573c0 44 -18 54 -116 57v5h333v-5c-98 -3 -117 -13 -117 -57v-573
c0 -45 19 -55 117 -57v-5h-333z" />
    <glyph glyph-name="afii10057" unicode="&#x408;" horiz-adv-x="550" 
d="M208 -17c-102 0 -167 58 -167 115c0 38 26 66 58 66s56 -24 56 -55s-25 -62 -66 -66c14 -27 68 -53 110 -53c84 0 118 58 118 171v474c0 44 -16 54 -118 57v5h332v-5c-94 -3 -113 -13 -113 -58v-434c0 -133 -63 -217 -210 -217z" />
    <glyph glyph-name="afii10058" unicode="&#x409;" horiz-adv-x="953" 
d="M641 0h-299v5c93 3 106 9 106 55v629h-165c-39 0 -53 -10 -53 -53v-148c0 -285 -40 -495 -149 -495c-44 0 -68 27 -68 63c0 33 22 60 57 60s52 -25 52 -53c0 -19 -11 -38 -18 -47c71 7 118 177 118 470v147c0 46 -17 56 -115 59v5h562v-5c-103 -3 -121 -11 -121 -59v-250
h84c207 0 289 -78 289 -188c0 -104 -70 -195 -280 -195zM548 8h89c139 0 173 67 173 185c0 120 -32 182 -176 182h-86v-367z" />
    <glyph glyph-name="afii10059" unicode="&#x40a;" horiz-adv-x="1077" 
d="M466 0v5c93 3 106 10 106 56v314h-328v-314c0 -46 12 -53 106 -56v-5h-320v5c95 3 114 11 114 56v574c0 45 -19 54 -114 57v5h320v-5c-94 -3 -106 -11 -106 -57v-252h328v252c0 46 -13 54 -106 57v5h320v-5c-103 -3 -114 -11 -114 -59v-250h84c207 0 289 -78 289 -188
c0 -104 -70 -195 -280 -195h-299zM672 8h89c139 0 173 67 173 185c0 120 -32 182 -176 182h-86v-367z" />
    <glyph glyph-name="afii10060" unicode="&#x40b;" horiz-adv-x="907" 
d="M396 314v-252c0 -45 26 -55 123 -57v-5h-345v5c97 2 123 12 123 57v627h-109c-73 0 -88 -53 -147 -193l-4 1l6 200h608l6 -200l-5 -1c-48 145 -93 193 -140 193h-116v-363c69 54 151 89 224 89c120 0 177 -69 177 -180v-173c0 -46 16 -54 114 -57v-5h-320v5
c94 3 107 9 107 56v191c0 78 -26 137 -116 137c-57 0 -130 -27 -186 -75z" />
    <glyph glyph-name="afii10061" unicode="&#x40c;" horiz-adv-x="709" 
d="M318 774l43 108c27 68 33 92 63 92c22 0 41 -18 41 -41c0 -19 -14 -35 -61 -82l-81 -77h-5zM243 356v-296c0 -47 19 -52 113 -55v-5h-327v5c98 3 114 10 114 56v573c0 46 -16 55 -114 58v5h327v-5c-94 -3 -113 -11 -113 -57v-271h91c84 0 142 25 149 165
c4 94 26 174 112 174c44 0 62 -32 62 -64c0 -31 -24 -57 -57 -57c-34 0 -55 24 -55 52c0 19 5 32 14 43c-57 0 -63 -89 -68 -148c-6 -76 -20 -150 -99 -166v-4c139 -8 187 -67 201 -179l7 -58c12 -101 31 -112 123 -113v-5c-35 -5 -71 -9 -105 -9c-96 0 -117 41 -126 131
c-18 176 -16 230 -168 230h-81z" />
    <glyph glyph-name="afii10062" unicode="&#x40e;" horiz-adv-x="675" 
d="M378 784c52 0 74 19 81 38c-29 7 -40 29 -40 46c0 31 16 46 44 46c27 0 45 -23 45 -49c0 -38 -43 -88 -130 -88s-130 50 -130 88c0 26 18 49 45 49c28 0 44 -15 44 -46c0 -17 -11 -39 -40 -46c7 -19 29 -38 81 -38zM186 -8c-42 0 -74 27 -74 65c0 33 26 63 59 63
c37 0 55 -25 55 -56c0 -20 -7 -35 -14 -44c37 1 71 46 101 108l32 66l-234 421c-34 60 -52 74 -121 78v4h316v-5c-74 -2 -128 0 -80 -86l171 -308l140 288c36 74 23 100 -78 106v5h229v-5c-82 -6 -102 -30 -151 -129l-223 -454c-38 -78 -76 -117 -128 -117z" />
    <glyph glyph-name="afii10145" unicode="&#x40f;" horiz-adv-x="815" 
d="M406 -207c-29 0 -44 29 -44 58c0 31 41 62 41 149h-373v5c95 3 114 12 114 57v573c0 45 -19 54 -114 57v5h320v-5c-94 -3 -106 -11 -106 -57v-627h328v627c0 46 -13 54 -106 57v5h320v-5c-95 -3 -114 -12 -114 -57v-573c0 -45 19 -54 114 -57v-5h-375
c0 -86 39 -118 39 -149c0 -28 -14 -58 -44 -58z" />
    <glyph glyph-name="afii10017" unicode="&#x410;" horiz-adv-x="683" 
d="M420 273h-244l-63 -154c-12 -29 -18 -50 -18 -66c0 -33 30 -42 109 -48v-5h-230v5c63 9 88 10 129 114l243 599h4l240 -620c30 -78 37 -84 115 -93v-5h-312v5c51 2 101 0 101 43c0 3 -21 78 -74 225zM179 281h238c-22 55 -102 262 -116 299z" />
    <glyph glyph-name="afii10018" unicode="&#x411;" horiz-adv-x="665" 
d="M29 0v5c98 3 114 12 114 58v571c0 46 -16 55 -114 58v5h558c0 -71 1 -127 1 -198l-6 -2c-50 150 -69 192 -149 192h-190v-307h92c207 0 289 -77 289 -187c0 -104 -80 -195 -283 -195h-312zM243 8h97c140 0 173 67 173 185s-32 181 -176 181h-94v-366z" />
    <glyph glyph-name="afii10019" unicode="&#x412;" horiz-adv-x="673" 
d="M30 0v5c95 3 114 12 114 57v573c0 44 -19 54 -114 57v5h306c197 0 267 -78 267 -166c0 -78 -60 -146 -197 -160v-3c148 -11 226 -71 226 -171c0 -99 -76 -197 -288 -197h-314zM244 372h98c112 0 154 46 154 156c0 106 -34 161 -160 161h-92v-317zM244 8h107
c129 0 173 54 173 187c0 106 -50 169 -178 169h-102v-356z" />
    <glyph glyph-name="afii10020" unicode="&#x413;" horiz-adv-x="613" 
d="M30 0v5c95 3 114 12 114 57v574c0 44 -19 53 -114 56v5h552l9 -220l-5 -1c-58 149 -79 213 -159 213h-183v-627c0 -46 19 -55 120 -57v-5h-334z" />
    <glyph glyph-name="afii10021" unicode="&#x414;" horiz-adv-x="725" 
d="M10 -208l9 213c162 4 221 169 221 515v104c0 50 -17 64 -115 68v5h566v-6c-97 -3 -113 -21 -113 -67v-555c0 -47 13 -62 115 -64l9 -213c-4 0 -2 -1 -6 -1c-70 176 -92 209 -175 209h-324c-88 0 -112 -31 -181 -209c-4 0 -2 1 -6 1zM97 8h380v681h-173
c-21 0 -56 -7 -56 -65v-104c0 -178 -8 -437 -151 -512z" />
    <glyph glyph-name="afii10022" unicode="&#x415;" horiz-adv-x="680" 
d="M30 0v5c95 3 114 12 114 57v573c0 44 -19 54 -114 57v5h564l3 -197l-5 -1c-40 143 -86 190 -143 190h-205v-324h106c78 0 91 25 114 137h5v-282h-5c-23 113 -36 137 -114 137h-106v-349h205c122 0 119 64 173 202l5 -1l-5 -209h-592z" />
    <glyph glyph-name="afii10024" unicode="&#x416;" horiz-adv-x="995" 
d="M661 0h-328v5c94 3 114 8 114 55v296h-64c-152 0 -150 -54 -168 -230c-9 -90 -30 -131 -126 -131c-34 0 -70 4 -105 9v5c92 1 111 12 123 113l7 58c14 112 62 171 201 179v4c-79 16 -93 90 -99 166c-5 59 -11 148 -68 148c9 -11 14 -24 14 -43c0 -28 -21 -52 -55 -52
c-33 0 -57 26 -57 57c0 32 18 64 62 64c86 0 108 -80 112 -174c7 -140 65 -165 149 -165h74v271c0 46 -20 54 -114 57v5h328v-5c-94 -3 -114 -11 -114 -57v-271h74c84 0 142 25 149 165c4 94 26 174 112 174c44 0 62 -32 62 -64c0 -31 -24 -57 -57 -57c-34 0 -55 24 -55 52
c0 19 5 32 14 43c-57 0 -63 -89 -68 -148c-6 -76 -20 -150 -99 -166v-4c139 -8 187 -67 201 -179l7 -58c12 -101 31 -112 123 -113v-5c-35 -5 -71 -9 -105 -9c-96 0 -117 41 -126 131c-18 176 -16 230 -168 230h-64v-296c0 -47 20 -52 114 -55v-5z" />
    <glyph glyph-name="afii10025" unicode="&#x417;" horiz-adv-x="585" 
d="M275 -17c-163 0 -232 95 -232 150c0 36 23 67 58 67s53 -28 53 -54c0 -32 -19 -52 -49 -62c3 -26 48 -93 169 -93c111 0 163 55 163 190c0 118 -49 183 -176 183h-45v8h27c143 0 177 39 177 170c0 116 -44 161 -133 161c-101 0 -145 -62 -202 -212h-4v222h4l34 -49
c36 25 96 47 170 47c142 0 232 -69 232 -166c0 -78 -38 -141 -190 -174v-4c143 -17 213 -74 213 -179c0 -120 -101 -205 -269 -205z" />
    <glyph glyph-name="afii10026" unicode="&#x418;" horiz-adv-x="828" 
d="M30 0v5c98 3 114 11 114 58v572c0 46 -16 54 -114 57v5h321v-5c-94 -3 -107 -10 -107 -56v-553l340 561c0 37 -18 45 -105 48v5h320v-5c-98 -3 -114 -9 -114 -55v-574c0 -47 16 -55 114 -58v-5h-320v5c93 3 105 10 105 56v568l-340 -563c0 -49 8 -58 107 -61v-5h-321z
" />
    <glyph glyph-name="afii10027" unicode="&#x419;" horiz-adv-x="828" 
d="M417 784c52 0 74 19 81 38c-29 7 -40 29 -40 46c0 31 16 46 44 46c27 0 45 -23 45 -49c0 -38 -43 -88 -130 -88s-130 50 -130 88c0 26 18 49 45 49c28 0 44 -15 44 -46c0 -17 -11 -39 -40 -46c7 -19 29 -38 81 -38zM30 0v5c98 3 114 11 114 58v572c0 46 -16 54 -114 57v5
h321v-5c-94 -3 -107 -10 -107 -56v-553l340 561c0 37 -18 45 -105 48v5h320v-5c-98 -3 -114 -9 -114 -55v-574c0 -47 16 -55 114 -58v-5h-320v5c93 3 105 10 105 56v568l-340 -563c0 -49 8 -58 107 -61v-5h-321z" />
    <glyph glyph-name="afii10028" unicode="&#x41a;" horiz-adv-x="709" 
d="M243 356v-296c0 -47 19 -52 113 -55v-5h-327v5c98 3 114 10 114 56v573c0 46 -16 55 -114 58v5h327v-5c-94 -3 -113 -11 -113 -57v-271h91c84 0 142 25 149 165c4 94 26 174 112 174c44 0 62 -32 62 -64c0 -31 -24 -57 -57 -57c-34 0 -55 24 -55 52c0 19 5 32 14 43
c-57 0 -63 -89 -68 -148c-6 -76 -20 -150 -99 -166v-4c139 -8 187 -67 201 -179l7 -58c12 -101 31 -112 123 -113v-5c-35 -5 -71 -9 -105 -9c-96 0 -117 41 -126 131c-18 176 -16 230 -168 230h-81z" />
    <glyph glyph-name="afii10029" unicode="&#x41b;" horiz-adv-x="692" 
d="M81 -7c-44 0 -68 27 -68 63c0 33 22 60 57 60s52 -25 52 -53c0 -19 -11 -38 -18 -47c71 7 118 177 118 470v147c0 46 -17 56 -115 59v5h555v-5c-95 -3 -113 -12 -113 -59v-572c0 -46 18 -53 113 -56v-5h-319v5c93 3 106 9 106 55v629h-166c-39 0 -53 -10 -53 -53v-148
c0 -285 -40 -495 -149 -495z" />
    <glyph glyph-name="afii10030" unicode="&#x41c;" horiz-adv-x="954" 
d="M43 0v5c98 14 121 12 121 109v484c0 57 -29 90 -121 95v4h220l228 -569h4l218 569h211v-5c-94 -3 -114 -13 -114 -57v-573c0 -45 20 -54 114 -57v-5h-319v5c93 3 105 11 105 57v591h-4l-252 -656h-12l-268 656h-2v-539c0 -97 21 -96 124 -109v-5h-253z" />
    <glyph glyph-name="afii10031" unicode="&#x41d;" horiz-adv-x="815" 
d="M30 0v5c95 3 114 11 114 56v574c0 45 -19 54 -114 57v5h320v-5c-94 -3 -106 -11 -106 -57v-269h328v269c0 46 -13 54 -106 57v5h320v-5c-95 -3 -114 -12 -114 -57v-574c0 -45 19 -53 114 -56v-5h-320v5c93 3 106 10 106 56v297h-328v-297c0 -46 12 -53 106 -56v-5h-320z
" />
    <glyph glyph-name="afii10032" unicode="&#x41e;" horiz-adv-x="761" 
d="M380 -17c-177 0 -333 142 -333 364c0 220 162 367 334 367c177 0 334 -142 334 -364c0 -221 -162 -367 -335 -367zM384 -9c128 0 216 71 216 357c0 288 -95 358 -223 358s-215 -71 -215 -357c0 -288 94 -358 222 -358z" />
    <glyph glyph-name="afii10033" unicode="&#x41f;" horiz-adv-x="815" 
d="M30 0v5c95 3 114 11 114 56v574c0 45 -19 54 -114 57v5h756v-5c-95 -3 -114 -12 -114 -57v-574c0 -45 19 -53 114 -56v-5h-320v5c93 3 106 10 106 56v628h-328v-628c0 -46 12 -53 106 -56v-5h-320z" />
    <glyph glyph-name="afii10034" unicode="&#x420;" horiz-adv-x="634" 
d="M30 0v5c95 3 114 12 114 57v579c0 44 -19 48 -114 51v5h290c206 0 282 -82 282 -190c0 -101 -78 -192 -288 -192h-70v-253c0 -47 20 -55 120 -57v-5h-334zM244 323h73c143 0 173 61 173 184c0 110 -32 182 -170 182h-76v-366z" />
    <glyph glyph-name="afii10035" unicode="&#x421;" horiz-adv-x="705" 
d="M384 -17c-196 0 -337 136 -337 357c0 216 158 371 358 371c71 0 132 -28 179 -53l43 61h4v-227h-6c-52 150 -118 211 -231 211c-123 0 -233 -109 -233 -356c0 -233 132 -341 256 -341c117 0 198 83 244 180l8 -4c-43 -98 -128 -199 -285 -199z" />
    <glyph glyph-name="afii10036" unicode="&#x422;" horiz-adv-x="695" 
d="M174 0v5c97 2 123 12 123 57v627h-109c-73 0 -88 -53 -147 -193l-4 1l6 200h609l6 -200l-5 -1c-48 145 -93 193 -140 193h-116v-627c0 -45 26 -55 123 -57v-5h-346z" />
    <glyph glyph-name="afii10037" unicode="&#x423;" horiz-adv-x="675" 
d="M186 -8c-42 0 -74 27 -74 65c0 33 26 63 59 63c37 0 55 -25 55 -56c0 -20 -7 -35 -14 -44c37 1 71 46 101 108l32 66l-234 421c-34 60 -52 74 -121 78v4h316v-5c-74 -2 -128 0 -80 -86l171 -308l140 288c36 74 23 100 -78 106v5h229v-5c-82 -6 -102 -30 -151 -129
l-223 -454c-38 -78 -76 -117 -128 -117z" />
    <glyph glyph-name="afii10038" unicode="&#x424;" horiz-adv-x="871" 
d="M267 0v5c101 2 119 9 119 56v41c-242 6 -346 97 -346 254c0 152 109 245 346 254v27c0 46 -13 53 -114 55v5h326v-5c-101 -2 -112 -9 -112 -55v-27c236 -9 345 -102 345 -254c0 -157 -104 -248 -345 -254v-41c0 -47 16 -54 117 -56v-5h-336zM386 110v492
c-183 -8 -236 -73 -236 -251c0 -171 48 -235 236 -241zM486 110c186 6 235 70 235 241c0 178 -54 243 -235 251v-492z" />
    <glyph glyph-name="afii10039" unicode="&#x425;" horiz-adv-x="701" 
d="M382 394l124 173c68 94 46 119 -66 125v5h252v-5c-86 -8 -98 -25 -179 -136c0 0 -124 -170 -125 -170l195 -298c39 -60 51 -71 133 -83v-5h-317v5c97 4 106 28 73 81l-149 236c1 0 -133 -187 -133 -187c-73 -106 -55 -124 59 -129v-6h-252v6c82 6 102 22 184 137l136 190
l-178 274c-40 61 -49 78 -137 85v5h318v-5c-92 -4 -107 -29 -71 -86z" />
    <glyph glyph-name="afii10040" unicode="&#x426;" horiz-adv-x="819" 
d="M789 -209c-70 181 -92 209 -175 209h-585v5c98 3 114 21 114 68v562c0 46 -16 54 -114 57v5h322v-5c-94 -3 -108 -9 -108 -56v-628h328v628c0 47 -13 53 -106 56v5h320v-5c-98 -3 -114 -11 -114 -57v-567c0 -47 14 -61 115 -63l9 -213c-4 0 -2 -1 -6 -1z" />
    <glyph glyph-name="afii10041" unicode="&#x427;" horiz-adv-x="771" 
d="M412 0v5c101 1 115 9 115 56v310c-69 -54 -151 -89 -224 -89c-120 0 -177 69 -177 180v173c0 46 -16 54 -114 57v5h320v-5c-94 -3 -107 -9 -107 -56v-191c0 -78 26 -137 116 -137c57 0 130 27 186 75v253c0 46 -13 53 -106 56v5h320v-5c-98 -3 -114 -11 -114 -57v-573
c0 -46 16 -54 114 -57v-5h-329z" />
    <glyph glyph-name="afii10042" unicode="&#x428;" horiz-adv-x="1174" 
d="M29 0v5c98 3 114 11 114 58v572c0 46 -16 54 -114 57v5h319v-5c-91 -3 -105 -9 -105 -56v-628h295v628c0 47 -13 53 -106 56v5h313v-5c-94 -3 -107 -9 -107 -56v-628h294v628c0 47 -13 53 -103 56v5h316v-5c-98 -3 -113 -11 -113 -57v-572c0 -47 15 -55 113 -58v-5h-1116
z" />
    <glyph glyph-name="afii10043" unicode="&#x429;" horiz-adv-x="1181" 
d="M1149 -209c-72 184 -91 209 -174 209h-946v5c98 3 114 11 114 58v572c0 46 -16 54 -114 57v5h319v-5c-91 -3 -105 -9 -105 -56v-628h295v628c0 47 -13 53 -106 56v5h313v-5c-94 -3 -107 -9 -107 -56v-628h294v628c0 47 -13 53 -103 56v5h316v-5c-98 -3 -113 -11 -113 -57
v-561c0 -53 13 -67 114 -69l9 -213c-4 0 -2 -1 -6 -1z" />
    <glyph glyph-name="afii10044" unicode="&#x42a;" horiz-adv-x="748" 
d="M128 0v5c97 3 114 13 114 59v625h-63c-60 0 -82 -33 -143 -193c-3 0 0 1 -4 1l5 200h425v-5c-103 -3 -120 -11 -120 -59v-250h83c207 0 289 -78 289 -188c0 -104 -70 -195 -279 -195h-307zM342 8h88c139 0 173 67 173 185c0 120 -32 182 -176 182h-85v-367z" />
    <glyph glyph-name="afii10045" unicode="&#x42b;" horiz-adv-x="965" 
d="M601 0v5c98 3 117 12 117 58v571c0 45 -19 55 -117 58v5h334v-5c-99 -3 -117 -13 -117 -58v-571c0 -46 18 -55 117 -58v-5h-334zM29 0v5c98 3 115 13 115 59v569c0 46 -17 56 -115 59v5h336v-5c-103 -3 -121 -11 -121 -59v-250h84c207 0 289 -78 289 -188
c0 -104 -70 -195 -280 -195h-308zM244 8h89c139 0 173 67 173 185c0 120 -32 182 -176 182h-86v-367z" />
    <glyph glyph-name="afii10046" unicode="&#x42c;" horiz-adv-x="650" 
d="M29 0v5c98 3 115 13 115 59v569c0 46 -17 56 -115 59v5h336v-5c-103 -3 -121 -11 -121 -59v-250h84c207 0 289 -78 289 -188c0 -104 -70 -195 -280 -195h-308zM244 8h89c139 0 173 67 173 185c0 120 -32 182 -176 182h-86v-367z" />
    <glyph glyph-name="afii10047" unicode="&#x42d;" horiz-adv-x="705" 
d="M315 -17c-189 0 -261 120 -261 176c0 39 24 70 59 70c37 0 55 -28 55 -56c0 -33 -19 -53 -50 -64c4 -27 40 -118 200 -118c135 0 226 100 226 358v9h-292v8h292c-6 257 -100 341 -224 341c-109 0 -178 -46 -238 -216h-5v223h3l44 -56c42 28 131 56 201 56
c194 0 333 -153 333 -371c0 -223 -162 -360 -343 -360z" />
    <glyph glyph-name="afii10048" unicode="&#x42e;" horiz-adv-x="1080" 
d="M714 -17c-159 0 -319 141 -319 364v11h-151v-297c0 -47 12 -53 106 -56v-5h-320v5c98 3 114 11 114 57v573c0 46 -16 54 -114 57v5h320v-5c-94 -3 -106 -10 -106 -56v-270h152c11 208 171 348 319 348c158 0 318 -141 318 -364c0 -221 -167 -367 -319 -367zM718 -9
c112 0 201 81 201 357c0 277 -96 358 -208 358s-201 -81 -201 -357c0 -277 96 -358 208 -358z" />
    <glyph glyph-name="afii10049" unicode="&#x42f;" horiz-adv-x="712" 
d="M84 -5c-33 0 -68 3 -103 9v5c89 0 111 12 123 113l6 52c12 104 48 155 193 168v4c-150 23 -211 88 -211 178c0 100 96 173 286 173h303v-5c-97 -3 -114 -11 -114 -56v-573c0 -46 17 -55 114 -58v-5h-323v5c92 3 109 11 109 57v278h-88c-118 0 -148 -29 -158 -125
c-20 -150 -7 -220 -137 -220zM378 348h89v341h-77c-142 0 -187 -54 -187 -168c0 -124 32 -173 175 -173z" />
    <glyph glyph-name="afii10065" unicode="&#x430;" horiz-adv-x="481" 
d="M165 -6c-84 0 -123 52 -123 107c0 41 19 73 61 96c62 34 184 54 212 58v75c0 81 -26 125 -90 125c-50 0 -91 -23 -106 -41c25 -3 43 -29 43 -49c0 -29 -19 -51 -51 -51c-31 0 -49 24 -49 51c0 56 74 98 175 98c105 0 168 -41 168 -138v-268c0 -31 6 -43 25 -43
c12 0 30 6 54 15l2 -3c-32 -19 -58 -31 -90 -31c-52 0 -77 26 -80 83h-1c-38 -45 -89 -84 -150 -84zM215 27c40 0 75 29 100 61v161c-146 -27 -178 -55 -178 -132c0 -62 25 -90 78 -90z" />
    <glyph glyph-name="afii10066" unicode="&#x431;" horiz-adv-x="528" 
d="M266 -11c-130 0 -222 78 -222 296c0 59 9 175 62 249c52 72 118 87 220 113c84 22 138 25 141 68h7c0 -149 -136 -142 -261 -182c-97 -31 -160 -43 -160 -248h4c26 82 92 173 214 173s222 -89 222 -230s-105 -239 -227 -239zM268 -5c81 0 125 61 125 231
s-46 226 -126 226c-79 0 -129 -56 -129 -225c0 -170 53 -232 130 -232z" />
    <glyph glyph-name="afii10067" unicode="&#x432;" horiz-adv-x="500" 
d="M19 0v5c57 1 74 6 74 39v369c0 34 -17 39 -74 40v5h251c127 0 174 -52 174 -109c0 -52 -44 -94 -133 -105v-4c97 -7 152 -46 152 -112c0 -65 -50 -128 -188 -128h-256zM182 8h71c87 0 115 30 115 119c0 78 -31 110 -116 110h-70v-229zM182 245h66c74 0 102 22 102 102
c0 72 -24 103 -106 103h-62v-205z" />
    <glyph glyph-name="afii10068" unicode="&#x433;" horiz-adv-x="425" 
d="M19 0v5c57 1 74 6 74 39v369c0 34 -17 39 -74 40v5h381l9 -152l-5 -1c-57 126 -65 145 -131 145h-90v-406c0 -32 26 -38 86 -39v-5h-250z" />
    <glyph glyph-name="afii10069" unicode="&#x434;" horiz-adv-x="518" 
d="M3 -155l7 160c111 14 151 107 151 333v69c0 36 -8 44 -78 46v5h412v-5c-57 -1 -75 -7 -75 -40v-358c0 -36 16 -48 78 -50l7 -160l-6 -1c-56 139 -83 156 -149 156h-192c-66 0 -93 -17 -149 -156zM70 8h260v442h-118c-34 0 -43 -7 -43 -43v-69c0 -146 -12 -277 -99 -330z
" />
    <glyph glyph-name="afii10070" unicode="&#x435;" horiz-adv-x="477" 
d="M133 267h215c1 12 1 23 1 34c0 91 -30 156 -101 156c-66 0 -107 -74 -115 -190zM132 259v-2c-1 -9 -1 -19 -1 -29c0 -120 56 -218 158 -218c66 0 109 48 150 102l5 -3c-43 -64 -94 -120 -191 -120c-128 0 -219 95 -219 232c0 138 100 243 220 243c123 0 191 -83 191 -187
c0 -6 -1 -12 -1 -18h-312z" />
    <glyph glyph-name="afii10072" unicode="&#x436;" horiz-adv-x="720" 
d="M443 235h-38v-190c0 -33 18 -39 75 -40v-5h-240v5c58 1 75 7 75 40v190h-38c-78 0 -92 -24 -100 -90l-6 -53c-7 -60 -25 -96 -89 -96c-23 0 -64 2 -87 5v4c61 1 74 10 81 79l4 39c9 86 49 108 140 113v4c-45 10 -56 55 -62 103s-12 95 -43 95c6 -10 9 -20 9 -31
c0 -29 -19 -51 -49 -51c-31 0 -47 25 -47 49c0 35 24 57 63 57c54 0 67 -48 75 -115c10 -83 34 -104 90 -104h59v170c0 33 -17 39 -75 40v5h240v-5c-57 -1 -75 -7 -75 -40v-170h59c56 0 80 21 90 104c8 67 21 115 75 115c39 0 63 -22 63 -57c0 -24 -16 -49 -47 -49
c-30 0 -49 22 -49 51c0 11 3 21 9 31c-31 0 -37 -47 -43 -95s-17 -93 -62 -103v-4c91 -5 131 -27 140 -113l4 -39c7 -69 20 -78 81 -79v-4c-23 -3 -64 -5 -87 -5c-64 0 -82 36 -89 96l-6 53c-8 66 -22 90 -100 90z" />
    <glyph glyph-name="afii10073" unicode="&#x437;" horiz-adv-x="428" 
d="M192 -11c-110 0 -151 52 -151 104c0 30 23 49 49 49c29 0 46 -21 46 -47s-21 -45 -40 -52c8 -18 34 -46 95 -46c67 0 103 47 103 125c0 77 -30 115 -113 115h-31v8h27c81 0 105 31 105 107c0 69 -33 104 -87 104c-55 0 -108 -45 -135 -144h-4v151h3l27 -35
c23 15 67 36 117 36c107 0 168 -43 168 -110c0 -50 -29 -91 -131 -110v-4c100 -9 147 -49 147 -117c0 -79 -74 -134 -195 -134z" />
    <glyph glyph-name="afii10074" unicode="&#x438;" horiz-adv-x="581" 
d="M19 0v5c57 1 74 6 74 39v369c0 34 -17 39 -74 40v5h228v-5c-48 -2 -64 -7 -64 -40v-355l215 365c-4 21 -12 27 -63 30v5h227v-5c-57 -1 -73 -6 -73 -40v-369c0 -33 16 -38 73 -39v-5h-227v5c48 1 63 7 63 39v363l-215 -366c0 -26 8 -33 64 -36v-5h-228z" />
    <glyph glyph-name="afii10075" unicode="&#x439;" horiz-adv-x="581" 
d="M289 544c52 0 72 19 76 38c-29 7 -40 29 -40 46c0 31 16 46 44 46c27 0 45 -23 45 -49c0 -38 -43 -88 -125 -88c-83 0 -125 50 -125 88c0 26 18 49 45 49c28 0 44 -15 44 -46c0 -17 -11 -39 -40 -46c4 -18 24 -38 76 -38zM19 0v5c57 1 74 6 74 39v369c0 34 -17 39 -74 40
v5h228v-5c-48 -2 -64 -7 -64 -40v-355l215 365c-4 21 -12 27 -63 30v5h227v-5c-57 -1 -73 -6 -73 -40v-369c0 -33 16 -38 73 -39v-5h-227v5c48 1 63 7 63 39v363l-215 -366c0 -26 8 -33 64 -36v-5h-228z" />
    <glyph glyph-name="afii10076" unicode="&#x43a;" horiz-adv-x="517" 
d="M432 -4c-64 0 -82 36 -89 96l-6 53c-8 66 -22 90 -100 90h-54v-191c0 -32 16 -39 75 -39v-5h-239v5c57 1 74 6 74 39v369c0 33 -17 39 -74 40v5h239v-5c-57 -1 -75 -7 -75 -40v-170h75c56 0 80 21 90 104c8 67 21 115 75 115c39 0 63 -22 63 -57c0 -24 -16 -49 -47 -49
c-30 0 -49 22 -49 51c0 11 3 21 9 31c-31 0 -37 -47 -43 -95s-17 -93 -62 -103v-4c91 -5 131 -27 140 -113l4 -39c7 -69 20 -78 81 -79v-4c-23 -3 -64 -5 -87 -5z" />
    <glyph glyph-name="afii10077" unicode="&#x43b;" horiz-adv-x="501" 
d="M53 -5c-26 0 -53 18 -53 51c0 29 17 51 48 51c25 0 44 -19 44 -46c0 -13 -3 -22 -8 -32c42 10 76 112 76 299v88c0 37 -13 45 -77 47v5h399v-5c-57 -1 -74 -6 -74 -40v-369c0 -33 17 -38 74 -39v-5h-239v5c58 0 75 7 75 39v406h-115c-25 0 -35 -16 -35 -44v-90
c0 -192 -29 -321 -115 -321z" />
    <glyph glyph-name="afii10078" unicode="&#x43c;" horiz-adv-x="643" 
d="M19 0v5c68 6 74 20 74 64v326c0 36 -14 56 -74 58v5h161l142 -349h3l140 349h159v-5c-57 -1 -75 -6 -75 -40v-369c0 -33 18 -38 75 -39v-5h-228v5c48 1 64 7 64 39v374h-3l-167 -418h-12l-174 419h-3v-350c0 -44 4 -61 77 -64v-5h-159z" />
    <glyph glyph-name="afii10079" unicode="&#x43d;" horiz-adv-x="569" 
d="M19 0v5c57 1 74 6 74 39v369c0 34 -17 39 -74 40v5h228v-5c-48 -2 -64 -7 -64 -40v-170h203v170c0 33 -16 38 -64 40v5h228v-5c-57 -1 -74 -6 -74 -40v-369c0 -33 17 -38 74 -39v-5h-228v5c48 1 64 7 64 39v191h-203v-191c0 -32 16 -38 64 -39v-5h-228z" />
    <glyph glyph-name="afii10080" unicode="&#x43e;" horiz-adv-x="525" 
d="M262 -11c-126 0 -228 95 -228 236s108 239 229 239c125 0 227 -94 227 -235s-107 -240 -228 -240zM268 -5c78 0 122 61 122 232s-52 231 -132 231c-79 0 -124 -60 -124 -231c0 -170 54 -232 134 -232z" />
    <glyph glyph-name="afii10081" unicode="&#x43f;" horiz-adv-x="567" 
d="M19 0v5c57 1 74 6 74 39v369c0 34 -17 39 -74 40v5h526v-5c-57 -1 -75 -6 -75 -40v-369c0 -33 18 -38 75 -39v-5h-228v5c48 1 63 7 63 39v406h-197v-406c0 -32 16 -38 64 -39v-5h-228z" />
    <glyph glyph-name="afii10082" unicode="&#x440;" horiz-adv-x="539" 
d="M5 -192v5c58 1 74 7 74 39v549c0 31 -12 47 -74 50v5l162 5v-72c43 45 91 75 153 75c113 0 183 -92 183 -223c0 -136 -87 -241 -212 -241c-51 0 -88 14 -122 33v-180c0 -33 21 -39 96 -39v-6h-260zM280 8c83 0 125 91 125 228c0 107 -46 199 -129 199
c-40 0 -75 -20 -107 -56v-292c21 -56 61 -79 111 -79z" />
    <glyph glyph-name="afii10083" unicode="&#x441;" horiz-adv-x="458" 
d="M248 -11c-129 0 -214 98 -214 230c0 143 106 245 235 245c105 0 155 -52 155 -92c0 -29 -18 -54 -50 -54c-31 0 -49 20 -49 47c0 25 14 43 40 51c-15 16 -40 42 -95 42c-77 0 -139 -85 -139 -222c0 -118 54 -216 161 -216c58 0 98 27 141 84l4 -3
c-42 -60 -93 -112 -189 -112z" />
    <glyph glyph-name="afii10084" unicode="&#x442;" horiz-adv-x="473" 
d="M118 0v5c57 1 73 6 73 39v406h-52c-39 0 -57 -19 -114 -145l-4 1l4 152h423l4 -152l-4 -1c-57 126 -75 145 -114 145h-52v-406c0 -32 16 -38 76 -39v-5h-240z" />
    <glyph glyph-name="afii10085" unicode="&#x443;" horiz-adv-x="483" 
d="M249 -8l-173 386c-24 54 -39 70 -91 75v5h236v-5c-65 -4 -73 -25 -57 -64l126 -297l107 268c30 75 16 88 -64 93v5h169v-5c-52 -4 -68 -28 -92 -88l-161 -397c-54 -132 -96 -167 -146 -167c-40 0 -65 29 -65 60c0 26 17 52 48 52c26 0 47 -23 47 -51
c0 -18 -3 -35 -14 -46c33 4 73 31 123 159z" />
    <glyph glyph-name="afii10086" unicode="&#x444;" horiz-adv-x="738" 
d="M247 -192v5c57 1 77 6 77 39v187c-29 -25 -67 -48 -117 -48c-106 0 -171 100 -171 237c0 138 65 238 171 238c50 0 88 -23 117 -49v242c0 32 -11 45 -82 48v5l172 5v-300c28 26 66 49 116 49c107 0 172 -100 172 -238c0 -137 -65 -237 -172 -237c-50 0 -88 23 -116 48
v-187c0 -33 19 -38 77 -39v-5h-244zM243 16c36 0 58 14 81 35v354c-23 22 -45 35 -81 35c-82 0 -109 -90 -109 -212c0 -121 27 -212 109 -212zM494 16c83 0 110 91 110 212c0 122 -27 212 -110 212c-35 0 -57 -13 -80 -35v-354c23 -21 45 -35 80 -35z" />
    <glyph glyph-name="afii10087" unicode="&#x445;" horiz-adv-x="504" 
d="M275 264l83 105c42 53 42 79 -42 84v5h186v-5c-59 -9 -83 -23 -140 -94l-81 -101l128 -174c49 -66 55 -73 98 -79v-5h-227v5c56 7 77 13 41 65l-92 134l-84 -106c-48 -61 -46 -90 48 -93v-5h-194v5c51 8 78 23 134 93l90 112l-119 164c-48 67 -58 73 -104 79v5h228v-5
c-67 -7 -69 -16 -36 -65z" />
    <glyph glyph-name="afii10088" unicode="&#x446;" horiz-adv-x="574" 
d="M555 -156c-56 139 -83 156 -149 156h-389v4c58 1 76 7 76 39v370c0 33 -18 39 -76 40v5h231v-5c-49 -2 -65 -7 -65 -40v-405h203v405c0 33 -16 38 -64 40v5h229v-5c-57 -1 -75 -7 -75 -40v-359c0 -35 16 -47 78 -49l7 -160s-7 -1 -6 -1z" />
    <glyph glyph-name="afii10089" unicode="&#x447;" horiz-adv-x="542" 
d="M272 0v5c57 1 87 6 87 39v200c-45 -38 -105 -63 -163 -63c-80 0 -116 51 -116 124v106c0 30 -7 41 -73 42v5h225v-5c-61 -2 -65 -12 -65 -46v-115c0 -52 18 -86 70 -86c39 0 85 12 122 48v159c0 34 -18 39 -68 40v5h232v-5c-57 -1 -74 -6 -74 -40v-369
c0 -33 17 -38 74 -39v-5h-251z" />
    <glyph glyph-name="afii10090" unicode="&#x448;" horiz-adv-x="817" 
d="M18 0v4c58 1 75 7 75 39v370c0 33 -17 39 -75 40v4h225v-4c-48 -2 -61 -7 -61 -40v-405h181v405c0 33 -16 38 -64 40v4h218v-4c-48 -2 -64 -7 -64 -40v-405h180v405c0 33 -11 38 -59 40v4h224v-4c-58 -1 -74 -7 -74 -40v-370c0 -32 16 -38 74 -39v-4h-780z" />
    <glyph glyph-name="afii10091" unicode="&#x449;" horiz-adv-x="822" 
d="M803 -156c-57 141 -90 156 -150 156h-635v5c58 1 75 7 75 39v369c0 33 -17 39 -75 40v5h225v-5c-48 -2 -61 -7 -61 -40v-405h181v405c0 33 -16 38 -64 40v5h218v-5c-48 -2 -64 -7 -64 -40v-405h180v405c0 33 -11 38 -59 40v5h224v-5c-58 -1 -74 -7 -74 -40v-359
c0 -35 16 -47 77 -49c3 -54 8 -160 8 -160z" />
    <glyph glyph-name="afii10092" unicode="&#x44a;" horiz-adv-x="547" 
d="M85 0v5c58 1 74 6 74 39v406h-23c-46 0 -69 -43 -111 -145c-2 0 -3 1 -5 1l9 152h295v-5c-60 -1 -75 -9 -75 -40v-157h83c137 0 190 -51 190 -124c0 -69 -52 -132 -186 -132h-251zM249 8h64c91 0 113 51 113 123s-21 117 -116 117h-61v-240z" />
    <glyph glyph-name="afii10093" unicode="&#x44b;" horiz-adv-x="705" 
d="M449 0v5c57 1 73 6 73 39v369c0 33 -16 39 -73 40v5h237v-5c-58 -1 -73 -7 -73 -40v-369c0 -33 15 -38 73 -39v-5h-237zM19 0v5c58 1 74 6 74 39v369c0 33 -16 39 -74 40v5h239v-5c-60 -1 -75 -9 -75 -40v-157h75c137 0 190 -51 190 -124c0 -69 -52 -132 -186 -132h-243z
M183 8h56c91 0 113 41 113 123s-21 117 -116 117h-53v-240z" />
    <glyph glyph-name="afii10094" unicode="&#x44c;" horiz-adv-x="481" 
d="M19 0v5c58 1 74 6 74 39v369c0 33 -16 39 -74 40v5h239v-5c-60 -1 -75 -9 -75 -40v-157h83c137 0 190 -51 190 -124c0 -69 -52 -132 -186 -132h-251zM183 8h64c91 0 113 41 113 123s-21 117 -116 117h-61v-240z" />
    <glyph glyph-name="afii10095" unicode="&#x44d;" horiz-adv-x="466" 
d="M199 -11c-116 0 -159 64 -159 108c0 29 23 49 48 49c28 0 47 -20 47 -46c0 -27 -17 -48 -39 -56c9 -18 35 -49 102 -49c79 0 134 63 134 232v7h-171v9h170c-3 142 -45 213 -119 213c-60 0 -123 -40 -156 -146h-5v153h4l27 -38c29 22 87 39 129 39c120 0 220 -96 220 -235
c0 -141 -113 -240 -232 -240z" />
    <glyph glyph-name="afii10096" unicode="&#x44e;" horiz-adv-x="747" 
d="M497 -11c-116 0 -215 95 -215 236v9h-99v-190c0 -32 14 -38 68 -39v-5h-232v5c57 1 74 6 74 39v369c0 34 -17 39 -74 40v5h232v-5c-54 -2 -68 -7 -68 -40v-171h99c10 129 110 222 216 222c116 0 214 -94 214 -235s-103 -240 -215 -240zM497 -3c68 0 116 54 116 230
s-45 229 -115 229c-69 0 -117 -53 -117 -229c0 -175 45 -230 116 -230z" />
    <glyph glyph-name="afii10097" unicode="&#x44f;" horiz-adv-x="514" 
d="M82 -5c-22 0 -71 1 -94 5v5c60 1 80 3 88 74l4 35c8 67 30 100 124 107v4c-99 15 -140 59 -140 118c0 67 63 115 188 115h243v-5c-57 -1 -74 -6 -74 -40v-369c0 -33 17 -38 74 -39v-5h-239v5c57 1 75 6 75 39v175h-54c-78 0 -97 -15 -104 -78l-7 -60
c-7 -58 -19 -86 -84 -86zM276 227h55v223h-47c-94 0 -123 -36 -123 -110c0 -82 20 -113 115 -113z" />
    <glyph glyph-name="afii10071" unicode="&#x451;" horiz-adv-x="477" 
d="M336 568c-30 0 -52 22 -52 51s22 53 51 53c30 0 51 -24 51 -53s-21 -51 -50 -51zM161 568c-29 0 -50 22 -50 51s21 53 49 53c31 0 52 -24 52 -53s-21 -51 -51 -51zM133 267h215c1 12 1 23 1 34c0 91 -30 156 -101 156c-66 0 -107 -74 -115 -190zM132 259v-2
c-1 -9 -1 -19 -1 -29c0 -120 56 -218 158 -218c66 0 109 48 150 102l5 -3c-43 -64 -94 -120 -191 -120c-128 0 -219 95 -219 232c0 138 100 243 220 243c123 0 191 -83 191 -187c0 -6 -1 -12 -1 -18h-312z" />
    <glyph glyph-name="afii10099" unicode="&#x452;" horiz-adv-x="543" 
d="M375 -92v396c0 75 -23 121 -85 121c-47 0 -91 -39 -119 -94v-287c0 -32 15 -38 64 -39v-5h-228v5c58 1 74 6 74 39v505h-74v8h74v106c0 34 -10 42 -82 45v4l172 5v-160h161v-8h-161v-200c44 71 104 115 172 115c77 0 122 -48 122 -137v-320c0 -85 -7 -131 -45 -168
c-29 -29 -67 -36 -104 -36c-64 0 -102 26 -102 64c0 28 21 50 48 50c28 0 46 -21 46 -48c0 -26 -16 -40 -33 -44c7 -6 14 -14 45 -14c38 0 55 35 55 97z" />
    <glyph glyph-name="afii10100" unicode="&#x453;" horiz-adv-x="425" 
d="M185 534l43 108c27 68 33 92 63 92c22 0 41 -18 41 -41c0 -19 -14 -35 -61 -82l-81 -77h-5zM19 0v5c57 1 74 6 74 39v369c0 34 -17 39 -74 40v5h381l9 -152l-5 -1c-57 126 -65 145 -131 145h-90v-406c0 -32 26 -38 86 -39v-5h-250z" />
    <glyph glyph-name="afii10101" unicode="&#x454;" horiz-adv-x="460" 
d="M250 -11c-130 0 -216 97 -216 230c0 143 105 245 232 245c41 0 89 -20 120 -38l32 37h4v-158h-4c-42 106 -93 154 -152 154c-74 0 -132 -85 -135 -216h181v-8h-181c2 -115 55 -215 161 -215c57 0 98 27 141 84l4 -3c-42 -60 -92 -112 -187 -112z" />
    <glyph glyph-name="afii10102" unicode="&#x455;" horiz-adv-x="411" 
d="M46 -11v164h4c49 -119 78 -157 160 -157c68 0 106 48 106 92c0 49 -29 74 -128 102c-101 28 -145 60 -145 132c0 81 68 142 162 142c51 0 90 -17 114 -36l24 36h4v-146h-4c-48 99 -61 139 -148 139c-51 0 -91 -40 -91 -89c0 -45 41 -68 123 -91c101 -28 146 -64 146 -138
c0 -84 -62 -150 -162 -150c-60 0 -102 18 -129 42l-31 -42h-5z" />
    <glyph glyph-name="afii10103" unicode="&#x456;" horiz-adv-x="278" 
d="M138 553c-34 0 -58 24 -58 59s24 61 58 61c35 0 58 -24 58 -59s-23 -61 -58 -61zM24 0v5c58 1 75 6 75 39v362c0 31 -13 43 -75 46v4l165 5v-417c0 -33 14 -38 74 -39v-5h-239z" />
    <glyph glyph-name="afii10104" unicode="&#x457;" horiz-adv-x="278" 
d="M228 568c-30 0 -52 22 -52 51s22 53 51 53c30 0 51 -24 51 -53s-21 -51 -50 -51zM53 568c-29 0 -50 22 -50 51s21 53 49 53c31 0 52 -24 52 -53s-21 -51 -51 -51zM24 0v5c58 1 75 6 75 39v362c0 31 -13 43 -75 46v4l165 5v-417c0 -33 14 -38 74 -39v-5h-239z" />
    <glyph glyph-name="afii10105" unicode="&#x458;" horiz-adv-x="266" 
d="M136 553c-34 0 -58 24 -58 59s24 61 58 61c35 0 58 -24 58 -59s-23 -61 -58 -61zM38 -197c-64 0 -102 26 -102 64c0 28 21 50 48 50c28 0 46 -21 46 -48c0 -26 -16 -40 -33 -44c7 -6 14 -14 45 -14c38 0 55 35 55 97v495c0 31 -14 45 -81 48v5l171 5v-454
c0 -85 -7 -131 -45 -168c-29 -29 -67 -36 -104 -36z" />
    <glyph glyph-name="afii10106" unicode="&#x459;" horiz-adv-x="706" 
d="M495 0h-252v5c58 0 75 7 75 39v406h-115c-25 0 -35 -16 -35 -44v-90c0 -192 -29 -321 -115 -321c-26 0 -53 18 -53 51c0 29 17 51 48 51c25 0 44 -19 44 -46c0 -13 -3 -22 -8 -32c42 10 76 112 76 299v88c0 37 -13 45 -77 47v5h400v-5c-60 -1 -75 -9 -75 -40v-157h83
c137 0 190 -51 190 -124c0 -69 -52 -132 -186 -132zM408 8h64c91 0 113 41 113 123s-21 117 -116 117h-61v-240z" />
    <glyph glyph-name="afii10107" unicode="&#x45a;" horiz-adv-x="774" 
d="M563 0h-241v5c48 1 64 7 64 39v204h-203v-204c0 -32 16 -38 64 -39v-5h-228v5c57 1 74 6 74 39v369c0 34 -17 39 -74 40v5h228v-5c-48 -2 -64 -7 -64 -40v-157h203v157c0 33 -16 38 -64 40v5h228l1 -5c-60 -1 -75 -9 -75 -40v-157h83c137 0 190 -51 190 -124
c0 -69 -52 -132 -186 -132zM476 8h64c91 0 113 41 113 123s-21 117 -116 117h-61v-240z" />
    <glyph glyph-name="afii10108" unicode="&#x45b;" horiz-adv-x="543" 
d="M7 557h74v106c0 34 -10 42 -82 45v4l172 5v-160h161v-8h-161v-200c44 71 104 115 172 115c77 0 122 -48 122 -137v-283c0 -32 15 -38 73 -39v-5h-227v5c49 1 64 7 64 39v260c0 75 -23 121 -85 121c-47 0 -91 -39 -119 -94v-287c0 -32 15 -38 64 -39v-5h-228v5
c58 1 74 6 74 39v505h-74v8z" />
    <glyph glyph-name="afii10109" unicode="&#x45c;" horiz-adv-x="517" 
d="M212 534l43 108c27 68 33 92 63 92c22 0 41 -18 41 -41c0 -19 -14 -35 -61 -82l-81 -77h-5zM432 -4c-64 0 -82 36 -89 96l-6 53c-8 66 -22 90 -100 90h-54v-191c0 -32 16 -39 75 -39v-5h-239v5c57 1 74 6 74 39v369c0 33 -17 39 -74 40v5h239v-5c-57 -1 -75 -7 -75 -40
v-170h75c56 0 80 21 90 104c8 67 21 115 75 115c39 0 63 -22 63 -57c0 -24 -16 -49 -47 -49c-30 0 -49 22 -49 51c0 11 3 21 9 31c-31 0 -37 -47 -43 -95s-17 -93 -62 -103v-4c91 -5 131 -27 140 -113l4 -39c7 -69 20 -78 81 -79v-4c-23 -3 -64 -5 -87 -5z" />
    <glyph glyph-name="afii10110" unicode="&#x45e;" horiz-adv-x="483" 
d="M275 544c52 0 72 19 76 38c-29 7 -40 29 -40 46c0 31 16 46 44 46c27 0 45 -23 45 -49c0 -38 -43 -88 -125 -88c-83 0 -125 50 -125 88c0 26 18 49 45 49c28 0 44 -15 44 -46c0 -17 -11 -39 -40 -46c4 -18 24 -38 76 -38zM249 -8l-173 386c-24 54 -39 70 -91 75v5h236v-5
c-65 -4 -73 -25 -57 -64l126 -297l107 268c30 75 16 88 -64 93v5h169v-5c-52 -4 -68 -28 -92 -88l-161 -397c-54 -132 -96 -167 -146 -167c-40 0 -65 29 -65 60c0 26 17 52 48 52c26 0 47 -23 47 -51c0 -18 -3 -35 -14 -46c33 4 73 31 123 159z" />
    <glyph glyph-name="afii10193" unicode="&#x45f;" horiz-adv-x="569" 
d="M285 -174c-25 0 -38 24 -38 48c0 26 34 71 34 126h-262v5c57 1 74 6 74 39v369c0 34 -17 39 -74 40v5h228v-5c-48 -2 -64 -7 -64 -40v-405h203v405c0 33 -16 38 -64 40v5h228v-5c-57 -1 -74 -6 -74 -40v-369c0 -33 17 -38 74 -39v-5h-260c0 -55 33 -100 33 -126
c0 -23 -12 -48 -38 -48z" />
    <glyph glyph-name="afii10050" unicode="&#x490;" horiz-adv-x="572" 
d="M28 0v5c98 3 115 13 115 59v570c0 46 -16 55 -114 58v5h380c61 0 86 17 159 207l6 -1l-10 -214h-321v-625c0 -48 18 -56 126 -59v-5h-341z" />
    <glyph glyph-name="afii10098" unicode="&#x491;" horiz-adv-x="405" 
d="M18 0v5c57 1 75 7 75 40v368c0 33 -18 39 -75 40v5h253c58 0 67 18 124 143l6 -1l-9 -150h-209v-405c0 -33 27 -39 87 -40v-5h-252z" />
    <glyph glyph-name="endash" unicode="&#x2013;" horiz-adv-x="540" 
d="M55 253v19h430v-19h-430z" />
    <glyph glyph-name="emdash" unicode="&#x2014;" horiz-adv-x="790" 
d="M55 253v19h680v-19h-680z" />
    <glyph glyph-name="quoteleft" unicode="&#x2018;" horiz-adv-x="220" 
d="M196 705l3 -6c-68 -35 -111 -71 -118 -133l4 -2c8 6 19 9 28 9c30 0 53 -22 53 -53c0 -33 -23 -59 -57 -59c-43 0 -60 30 -60 76c0 71 47 127 147 168z" />
    <glyph glyph-name="quoteright" unicode="&#x2019;" horiz-adv-x="220" 
d="M24 464l-3 6c68 35 111 71 118 133l-4 2c-8 -6 -19 -9 -28 -9c-30 0 -53 22 -53 53c0 33 23 59 57 59c43 0 60 -30 60 -76c0 -71 -47 -127 -147 -168z" />
    <glyph glyph-name="quotesinglbase" unicode="&#x201a;" horiz-adv-x="220" 
d="M24 -141l-3 6c68 35 111 71 118 133l-4 2c-8 -6 -19 -9 -28 -9c-30 0 -53 22 -53 53c0 33 23 59 57 59c43 0 60 -30 60 -76c0 -71 -47 -127 -147 -168z" />
    <glyph glyph-name="quotedblleft" unicode="&#x201c;" horiz-adv-x="394" 
d="M370 705l3 -6c-68 -35 -111 -71 -118 -133l4 -2c8 6 19 9 28 9c30 0 53 -22 53 -53c0 -33 -23 -59 -57 -59c-43 0 -60 30 -60 76c0 71 47 127 147 168zM196 705l3 -6c-68 -35 -111 -71 -118 -133l4 -2c8 6 19 9 28 9c30 0 53 -22 53 -53c0 -33 -23 -59 -57 -59
c-43 0 -60 30 -60 76c0 71 47 127 147 168z" />
    <glyph glyph-name="quotedblright" unicode="&#x201d;" horiz-adv-x="394" 
d="M24 464l-3 6c68 35 111 71 118 133l-4 2c-8 -6 -19 -9 -28 -9c-30 0 -53 22 -53 53c0 33 23 59 57 59c43 0 60 -30 60 -76c0 -71 -47 -127 -147 -168zM198 464l-3 6c68 35 111 71 118 133l-4 2c-8 -6 -19 -9 -28 -9c-30 0 -53 22 -53 53c0 33 23 59 57 59
c43 0 60 -30 60 -76c0 -71 -47 -127 -147 -168z" />
    <glyph glyph-name="quotedblbase" unicode="&#x201e;" horiz-adv-x="394" 
d="M24 -141l-3 6c68 35 111 71 118 133l-4 2c-8 -6 -19 -9 -28 -9c-30 0 -53 22 -53 53c0 33 23 59 57 59c43 0 60 -30 60 -76c0 -71 -47 -127 -147 -168zM198 -141l-3 6c68 35 111 71 118 133l-4 2c-8 -6 -19 -9 -28 -9c-30 0 -53 22 -53 53c0 33 23 59 57 59
c43 0 60 -30 60 -76c0 -71 -47 -127 -147 -168z" />
    <glyph glyph-name="dagger" unicode="&#x2020;" horiz-adv-x="554" 
d="M280 -106h-6c0 175 -37 369 -52 417l35 58c6 12 16 27 16 39c0 33 -17 58 -66 58s-90 -39 -128 -39c-22 0 -47 11 -47 37c0 28 29 49 81 49c43 0 99 -27 156 -61l3 3l-20 112c-10 53 -19 96 -19 121c0 34 17 59 44 59c28 0 44 -25 44 -59c0 -25 -9 -68 -18 -121l-22 -112
l3 -3c57 34 114 61 158 61c51 0 81 -21 81 -49c0 -26 -25 -37 -48 -37c-38 0 -79 39 -127 39c-51 0 -67 -25 -67 -58c0 -12 10 -27 16 -39l36 -58c-16 -48 -53 -242 -53 -417z" />
    <glyph glyph-name="daggerdbl" unicode="&#x2021;" horiz-adv-x="557" 
d="M278 -109c-27 0 -43 21 -43 55c0 25 8 61 18 112l22 111l-3 2c-53 -33 -115 -60 -158 -60c-52 0 -81 19 -81 48c0 26 25 38 47 38c38 0 80 -39 128 -39c50 0 67 20 67 51c0 11 -9 31 -15 44l-30 66l29 65c6 14 16 33 16 45c0 31 -16 51 -67 51c-48 0 -90 -39 -128 -39
c-22 0 -47 11 -47 37c0 28 29 49 81 49c43 0 109 -28 158 -61l3 3l-22 110c-10 52 -18 88 -18 113c0 33 16 55 44 55c27 0 44 -22 44 -55c0 -25 -9 -61 -19 -113l-22 -110l3 -3c51 33 115 61 158 61c52 0 81 -21 81 -49c0 -26 -25 -37 -47 -37c-38 0 -80 39 -128 39
c-49 0 -67 -21 -67 -51c0 -12 9 -32 16 -45l29 -65l-30 -66c-7 -13 -15 -33 -15 -44c0 -31 18 -51 67 -51c48 0 90 39 128 39c22 0 47 -12 47 -38c0 -27 -29 -48 -81 -48c-43 0 -102 27 -158 60l-3 -2l22 -111c10 -51 19 -87 19 -112c0 -34 -17 -55 -45 -55z" />
    <glyph glyph-name="bullet" unicode="&#x2022;" horiz-adv-x="463" 
d="M231 204c-69 0 -124 56 -124 124c0 69 55 125 124 125c70 0 126 -56 126 -125c0 -68 -56 -124 -126 -124z" />
    <glyph glyph-name="ellipsis" unicode="&#x2026;" horiz-adv-x="640" 
d="M110 -13c-32 0 -58 26 -58 56c0 32 26 58 58 58s58 -26 58 -57s-26 -57 -58 -57zM320 -13c-32 0 -58 26 -58 56c0 32 26 58 58 58s58 -26 58 -57s-26 -57 -58 -57zM531 -13c-32 0 -58 26 -58 56c0 32 26 58 58 58s58 -26 58 -57s-26 -57 -58 -57z" />
    <glyph glyph-name="perthousand" unicode="&#x2030;" horiz-adv-x="834" 
d="M417 -34c-216 0 -383 165 -383 383c0 215 167 382 383 382s383 -167 383 -382c0 -218 -167 -383 -383 -383zM417 -19c208 0 365 165 365 368s-157 367 -365 367s-365 -164 -365 -367s157 -368 365 -368zM367 359h43c74 0 94 24 94 89c0 58 -25 92 -94 92h-43v-181z
M367 351v-161c0 -20 12 -26 59 -28v-5h-186v5c50 2 61 9 61 28v325c0 20 -11 27 -61 29v4h181c114 0 153 -46 153 -95c0 -46 -27 -84 -108 -97v-3c73 -2 93 -33 99 -82l6 -52c5 -44 14 -56 59 -57v-5c-11 -1 -26 -2 -35 -2c-74 0 -90 21 -94 70l-4 47c-5 58 -22 79 -89 79
h-41z" />
    <glyph glyph-name="guilsinglleft" unicode="&#x2039;" horiz-adv-x="301" 
d="M245 30l-190 172c-14 12 -16 17 -16 22c0 4 2 11 16 23l190 171l3 -2l-132 -191l132 -193z" />
    <glyph glyph-name="guilsinglright" unicode="&#x203a;" horiz-adv-x="301" 
d="M246 202l-190 -172l-3 2l132 193l-132 191l3 2l190 -171c14 -12 16 -19 16 -23c0 -5 -2 -10 -16 -22z" />
    <glyph glyph-name="fraction" unicode="&#x2044;" horiz-adv-x="602" 
d="M42 -31l247 356l241 353h29l-245 -356l-243 -353h-29z" />
    <glyph glyph-name="Euro" unicode="&#x20ac;" horiz-adv-x="677" 
d="M401 -17c-171 0 -268 132 -286 284h-83v8h80c-1 12 -1 29 -1 41c0 21 2 46 5 66h-84v8h88c31 150 151 276 314 276c116 0 192 -53 192 -119c0 -31 -23 -64 -56 -64c-34 0 -61 21 -61 61c0 31 20 52 46 62c-12 20 -64 54 -124 54c-111 0 -196 -90 -211 -270h227v-8h-229
c0 -14 -1 -33 -1 -48c0 -19 1 -41 3 -59h227v-8h-225c21 -139 103 -232 218 -232c82 0 152 51 189 121l4 -3c-42 -86 -103 -170 -232 -170z" />
    <glyph glyph-name="afii61352" unicode="&#x2116;" horiz-adv-x="954" 
d="M64 -7c-31 0 -59 18 -59 59c0 28 21 54 54 54c30 0 52 -22 52 -53c0 -10 -3 -21 -7 -29c28 8 44 55 44 122v402c0 55 -27 101 -116 108v5h198l339 -482h4v339c0 96 32 151 88 151c36 0 60 -17 60 -58c0 -28 -20 -54 -53 -54c-31 0 -51 22 -51 53c0 10 2 20 7 29
c-28 -8 -43 -56 -43 -123v-527h-3l-418 581h-4v-426c0 -96 -23 -151 -92 -151zM661 108v43h244v-43h-244zM785 189c-76 0 -136 57 -136 139c0 81 65 141 134 141c74 0 136 -58 136 -140c0 -81 -65 -140 -134 -140zM785 197c44 0 70 28 70 131c0 105 -27 133 -72 133
c-44 0 -71 -28 -71 -132c0 -103 28 -132 73 -132z" />
    <glyph glyph-name="trademark" unicode="&#x2122;" horiz-adv-x="595" 
d="M281 476v4c30 3 35 13 35 45v137c0 16 -7 29 -35 30v5h82l63 -173l62 173h82v-5c-29 -2 -36 -7 -36 -18v-177c0 -11 7 -14 36 -15v-6h-108v6c24 1 30 4 30 15v171h-6l-69 -194h-14l-74 194h-5v-143c0 -32 5 -41 35 -45v-4h-78zM89 476v4c31 0 38 6 38 17v192h-14
c-31 0 -44 -21 -62 -66h-4l3 74h197l3 -74h-5c-16 46 -30 66 -63 66h-12v-192c0 -11 7 -17 38 -17v-4h-119z" />
    <glyph glyph-name="partialdiff" unicode="&#x2202;" 
d="M1 0v697h498v-697h-498zM81 49h338l-169 254zM50 95l170 253l-170 254v-507zM449 95v507l-170 -254zM250 393l169 254h-338z" />
    <glyph glyph-name="Delta" unicode="&#x2206;" horiz-adv-x="658" 
d="M50 0l281 712h5l281 -712h-567zM63 8h442l-217 564h-4z" />
    <glyph glyph-name="product" unicode="&#x220f;" 
d="M1 0v697h498v-697h-498zM81 49h338l-169 254zM50 95l170 253l-170 254v-507zM449 95v507l-170 -254zM250 393l169 254h-338z" />
    <glyph glyph-name="summation" unicode="&#x2211;" 
d="M1 0v697h498v-697h-498zM81 49h338l-169 254zM50 95l170 253l-170 254v-507zM449 95v507l-170 -254zM250 393l169 254h-338z" />
    <glyph glyph-name="minus" unicode="&#x2212;" 
d="M1 0v697h498v-697h-498zM81 49h338l-169 254zM50 95l170 253l-170 254v-507zM449 95v507l-170 -254zM250 393l169 254h-338z" />
    <glyph glyph-name="radical" unicode="&#x221a;" 
d="M1 0v697h498v-697h-498zM81 49h338l-169 254zM50 95l170 253l-170 254v-507zM449 95v507l-170 -254zM250 393l169 254h-338z" />
    <glyph glyph-name="infinity" unicode="&#x221e;" 
d="M1 0v697h498v-697h-498zM81 49h338l-169 254zM50 95l170 253l-170 254v-507zM449 95v507l-170 -254zM250 393l169 254h-338z" />
    <glyph glyph-name="integral" unicode="&#x222b;" 
d="M1 0v697h498v-697h-498zM81 49h338l-169 254zM50 95l170 253l-170 254v-507zM449 95v507l-170 -254zM250 393l169 254h-338z" />
    <glyph glyph-name="approxequal" unicode="&#x2248;" 
d="M1 0v697h498v-697h-498zM81 49h338l-169 254zM50 95l170 253l-170 254v-507zM449 95v507l-170 -254zM250 393l169 254h-338z" />
    <glyph glyph-name="notequal" unicode="&#x2260;" 
d="M1 0v697h498v-697h-498zM81 49h338l-169 254zM50 95l170 253l-170 254v-507zM449 95v507l-170 -254zM250 393l169 254h-338z" />
    <glyph glyph-name="lessequal" unicode="&#x2264;" 
d="M1 0v697h498v-697h-498zM81 49h338l-169 254zM50 95l170 253l-170 254v-507zM449 95v507l-170 -254zM250 393l169 254h-338z" />
    <glyph glyph-name="greaterequal" unicode="&#x2265;" 
d="M1 0v697h498v-697h-498zM81 49h338l-169 254zM50 95l170 253l-170 254v-507zM449 95v507l-170 -254zM250 393l169 254h-338z" />
    <glyph glyph-name="lozenge" unicode="&#x25ca;" 
d="M1 0v697h498v-697h-498zM81 49h338l-169 254zM50 95l170 253l-170 254v-507zM449 95v507l-170 -254zM250 393l169 254h-338z" />
    <glyph glyph-name="cyrBreve" unicode="&#xf6d1;" horiz-adv-x="336" 
d="M165 544c52 0 74 19 81 38c-29 7 -40 29 -40 46c0 31 16 46 44 46c27 0 45 -23 45 -49c0 -38 -43 -88 -130 -88s-130 50 -130 88c0 26 18 49 45 49c28 0 44 -15 44 -46c0 -17 -11 -39 -40 -46c7 -19 29 -38 81 -38z" />
    <glyph glyph-name="cyrbreve" unicode="&#xf6d4;" horiz-adv-x="336" 
d="M165 544c52 0 72 19 76 38c-29 7 -40 29 -40 46c0 31 16 46 44 46c27 0 45 -23 45 -49c0 -38 -43 -88 -125 -88c-83 0 -125 50 -125 88c0 26 18 49 45 49c28 0 44 -15 44 -46c0 -17 -11 -39 -40 -46c4 -18 24 -38 76 -38z" />
    <glyph glyph-name="apple" unicode="&#xf8ff;" horiz-adv-x="486" 
d="M1 0v678h484v-678h-484zM79 48h328l-164 247zM48 93l166 246l-166 247v-493zM437 93v493l-166 -247zM243 382l164 248h-328z" />
    </font>
</defs>
</svg>
